<svg version="1.1" id="Layer_1" xmlns="http://www.w3.org/2000/svg" xmlns:xlink="http://www.w3.org/1999/xlink" x="0px" y="0px"
	 width="100%" viewBox="0 0 704 688" enable-background="new 0 0 704 688" xml:space="preserve">
<path fill="#000000" opacity="1.000000" stroke="none" 
	d="
M639.708130,242.399979 
	C654.754517,286.306793 659.267212,330.946350 654.610535,376.692017 
	C651.167053,410.519958 641.833435,442.571716 627.457947,473.286804 
	C615.601257,498.620209 600.495972,521.662720 582.234192,542.971375 
	C560.865967,567.904846 536.425354,588.746460 508.691528,606.220337 
	C472.150879,629.242859 432.614563,643.516296 389.975891,649.497314 
	C320.596985,659.229004 255.342789,646.654419 194.476120,612.229553 
	C150.196854,587.186157 114.325920,553.078613 86.682594,510.187073 
	C65.109604,476.714325 50.168293,440.690155 42.409714,401.689850 
	C35.085705,364.873993 35.192875,328.002777 41.237827,290.961945 
	C45.810009,262.945618 54.492310,236.353516 66.356461,210.691406 
	C78.610672,184.185608 94.733932,160.247879 114.017548,138.347458 
	C143.053101,105.371742 177.613327,79.696541 217.163361,60.871262 
	C245.469513,47.397923 275.432617,39.063137 306.518585,34.832596 
	C339.309753,30.369986 371.928253,31.287766 404.424927,37.593052 
	C461.461456,48.659790 511.371887,74.042801 554.277527,112.968132 
	C590.616211,145.935745 618.345093,185.030136 635.411926,231.323547 
	C636.736389,234.916092 638.174255,238.466843 639.708130,242.399979 
M287.240387,228.965652 
	C283.067352,228.325943 281.927399,225.901199 283.416595,222.160339 
	C286.792358,213.680618 291.315857,206.061340 299.149109,200.806702 
	C305.312561,196.672180 311.816956,193.446167 319.233368,192.429581 
	C322.569183,191.972351 324.240051,190.528564 324.067383,186.906982 
	C323.917633,183.765747 324.422119,180.598984 324.471649,177.440887 
	C324.515259,174.660919 323.395721,172.919312 320.207031,173.564590 
	C303.689087,176.907288 289.190918,184.067627 281.329193,199.518204 
	C274.475647,212.987335 264.450958,220.962708 250.310333,225.506012 
	C230.328430,231.926071 220.686172,249.170044 230.581757,270.620850 
	C231.362289,272.312866 231.588120,274.865234 234.419266,274.365234 
	C237.197769,273.874603 237.900955,271.842285 238.128571,269.232361 
	C238.488998,265.099701 238.852188,260.905609 239.868347,256.903595 
	C242.758423,245.521133 250.132553,237.722778 260.502869,232.660263 
	C262.841003,231.518860 265.802246,230.241196 267.429352,233.659515 
	C268.942322,236.837997 266.159332,237.963501 264.061584,239.314377 
	C261.407562,241.023468 258.627472,242.602448 256.221802,244.619308 
	C248.649765,250.967728 246.062653,259.325439 246.387558,269.523682 
	C253.077240,268.134949 258.638031,265.562836 264.287720,263.313934 
	C265.017426,263.023499 265.567902,261.805786 265.837585,260.908295 
	C269.758514,247.859848 277.658112,237.588699 288.632812,228.746674 
	C298.318634,223.009659 308.466797,218.588303 319.879028,217.761047 
	C321.606140,217.635834 323.503204,217.373108 323.626831,215.265503 
	C323.924103,210.199127 324.471130,205.095139 323.466766,199.674683 
	C312.532928,201.014908 303.622314,205.011108 296.879028,213.439941 
	C293.081512,218.186646 291.137756,223.929062 287.240387,228.965652 
M493.651703,471.701904 
	C505.117767,475.201691 516.610657,478.610809 527.766541,483.054138 
	C549.154968,491.573090 564.969055,506.004333 574.681274,526.981506 
	C575.640564,529.053284 576.734070,531.062805 577.835205,533.239380 
	C636.613647,467.745453 672.241455,350.175781 626.797913,233.242950 
	C581.701294,117.202736 464.225006,33.537209 329.399170,41.439602 
	C201.450958,48.938885 90.889816,139.137848 56.799026,261.814087 
	C38.550335,327.482300 42.314373,392.317261 68.085861,455.615845 
	C79.438164,483.498779 94.845909,508.966431 113.660889,532.459229 
	C116.547592,530.507446 117.065521,528.136292 118.041702,526.060120 
	C122.839905,515.855225 128.902908,506.633026 137.695099,499.313538 
	C153.467911,486.182648 172.282379,479.506348 191.558289,474.011230 
	C210.498169,468.611969 229.051056,462.384094 246.795013,453.711273 
	C264.121216,445.242645 275.598267,431.514496 283.794159,414.567871 
	C284.239197,413.647675 285.323029,412.622314 283.957794,411.220215 
	C263.455627,416.640350 244.751022,413.044830 230.000687,397.146942 
	C215.394424,381.404297 212.604538,362.624512 219.833206,342.436920 
	C198.878769,339.583771 186.323410,329.770905 180.965530,311.038696 
	C178.790543,303.434509 176.575821,296.296753 170.881165,290.574249 
	C169.628922,289.315857 168.855774,287.519714 168.063599,285.874176 
	C162.115005,273.517303 161.126251,261.120392 169.170471,249.362198 
	C171.569962,245.854874 172.759048,242.612839 172.932571,238.444595 
	C173.981644,213.242783 191.672089,195.557343 215.505630,196.231125 
	C220.642471,196.376343 222.263596,194.454056 223.860107,190.103760 
	C230.202789,172.820724 239.556122,157.425842 253.667587,145.230835 
	C272.616943,128.854965 294.740051,119.544777 319.307678,115.723434 
	C322.998962,115.149277 325.123962,113.867607 325.938293,109.756668 
	C328.884583,94.882904 335.503387,81.424820 342.925690,68.347404 
	C345.317017,64.134102 347.981842,64.023849 350.170471,68.100151 
	C357.420868,81.603966 364.608917,95.151169 367.589233,110.417236 
	C368.126526,113.169525 369.402130,114.651695 372.533264,114.928001 
	C386.247589,116.138214 399.433289,119.575912 411.926239,125.389854 
	C414.426575,126.553467 416.156860,126.104790 418.331879,124.773453 
	C424.011505,121.296898 429.788422,117.965775 435.644653,114.794785 
	C441.915619,111.399239 443.306152,111.982269 445.899475,118.792885 
	C449.282562,127.677582 452.150726,136.734039 453.615265,146.146271 
	C454.200684,149.908493 455.874207,152.177597 459.233917,154.212799 
	C477.417358,165.227829 485.576904,185.505783 474.150055,203.665237 
	C472.819427,205.779846 473.929077,207.532211 474.656006,209.322510 
	C479.993591,222.467636 482.430084,236.132675 482.067383,250.297821 
	C481.950043,254.880661 482.932587,259.162079 484.672943,263.405182 
	C489.640289,275.515808 497.078674,286.190887 503.806335,297.298920 
	C509.460815,306.635040 506.711029,314.627747 496.851501,319.272034 
	C489.461121,322.753265 488.681854,324.505859 491.506775,332.507507 
	C492.771606,336.090149 492.995087,339.571381 490.194611,342.278442 
	C488.111664,344.291901 488.205048,345.925659 489.107574,348.377472 
	C490.696686,352.694733 490.005341,356.956085 485.873108,359.383728 
	C481.104980,362.184906 480.632019,365.738464 482.371643,370.365601 
	C482.953308,371.912567 483.253174,373.574219 483.593109,375.201935 
	C486.440552,388.837067 478.837769,399.377136 465.166351,401.276855 
	C454.704041,402.730621 444.612793,400.559265 434.447357,398.871979 
	C423.348450,397.029694 414.662872,402.943176 412.443665,413.975281 
	C411.918671,416.585144 411.862366,419.318024 411.099243,421.846008 
	C408.588104,430.164093 412.222321,436.099030 418.319794,441.047516 
	C423.254333,445.052185 428.753174,448.182861 434.536499,450.830811 
	C453.371002,459.454498 472.970795,465.910919 493.651703,471.701904 
M370.164612,368.500000 
	C370.193085,386.829407 370.221680,405.158844 370.249969,423.488251 
	C370.280334,443.150177 370.336548,462.812134 370.314575,482.473999 
	C370.310944,485.702545 370.687439,488.088928 374.905548,487.606049 
	C385.002014,486.450317 395.093323,485.353607 404.775208,481.997833 
	C409.598663,480.326019 411.914886,481.370453 412.578308,486.335358 
	C413.814270,495.585175 414.306885,504.919373 412.711426,514.190430 
	C411.866852,519.098083 410.163391,519.949158 405.328094,518.342346 
	C400.131317,516.615417 394.856750,515.534363 389.076660,515.605103 
	C389.256531,520.067444 389.929901,524.315735 387.708069,528.099426 
	C386.315613,530.470642 386.356415,532.717407 387.267090,535.237854 
	C389.417114,541.188293 388.350677,546.697388 384.614075,551.757812 
	C383.750854,552.926941 382.545471,553.964905 382.961517,555.731934 
	C384.645294,562.883240 383.313263,569.372498 378.325378,575.097961 
	C401.124939,562.802856 420.242554,546.496155 435.963013,526.233643 
	C447.473572,511.397400 456.837036,495.327820 463.042145,477.544830 
	C465.171875,471.441223 464.821136,470.944427 458.851227,468.837036 
	C445.801971,464.230591 432.927124,459.245514 420.891876,452.302795 
	C415.907837,449.427704 411.498901,445.792511 406.747986,440.921875 
	C405.771210,445.493469 405.010803,448.856354 404.340881,452.237152 
	C403.499786,456.481384 402.825012,460.760529 401.898621,464.985168 
	C401.360260,467.440369 399.920441,469.505127 397.104919,469.090607 
	C393.964783,468.628235 393.978180,466.146271 394.494751,463.658691 
	C394.697876,462.680389 394.916168,461.705109 395.108643,460.724731 
	C397.608826,447.988770 400.391113,435.299530 402.516724,422.501251 
	C404.357788,411.416107 407.114594,401.031250 417.566467,393.868683 
	C415.109833,392.860260 413.317017,392.074463 411.488892,391.381958 
	C398.890289,386.609528 387.672821,379.518646 377.274445,371.047882 
	C374.970764,369.171265 373.559937,366.908813 375.712799,364.200287 
	C378.051941,361.257355 380.363831,362.838440 382.533142,364.727356 
	C385.043854,366.913483 387.452820,369.252838 390.153778,371.178009 
	C406.781769,383.030151 425.695709,389.140289 445.528015,392.767792 
	C452.591614,394.059753 459.743713,394.585266 466.859741,392.893646 
	C471.487640,391.793518 475.045105,389.003143 475.536987,384.308777 
	C476.438568,375.704254 474.721558,367.248993 471.778320,359.171692 
	C470.698334,356.207733 471.387390,355.132904 474.106262,354.676331 
	C475.731934,354.403351 477.437439,354.477509 479.007324,354.038757 
	C480.438812,353.638672 481.855103,352.779388 482.017517,351.047211 
	C482.199768,349.103546 480.791016,348.019562 479.357147,347.150574 
	C477.354645,345.936920 475.107452,346.288391 473.027069,346.783722 
	C469.960510,347.513794 466.959381,348.533447 463.955444,349.507050 
	C461.805878,350.203735 459.783539,350.107086 458.870209,347.845917 
	C457.849060,345.317719 459.810822,344.271179 461.779388,343.515869 
	C467.371124,341.370422 472.934601,339.212128 478.995087,338.587738 
	C484.613068,338.008911 485.224762,336.807343 483.345734,331.486755 
	C481.084503,325.083954 482.166656,319.772003 486.761322,316.181793 
	C489.113037,314.344208 491.745605,312.858307 494.292328,311.279724 
	C499.372650,308.130646 500.142975,305.561981 496.866058,300.626404 
	C493.362976,295.350189 489.643372,290.192505 486.906036,284.482758 
	C485.009613,280.527161 482.388916,279.732819 478.417816,280.826477 
	C475.548401,281.616699 472.528870,281.902039 469.559692,282.283478 
	C440.010071,286.079651 410.447235,289.774567 380.909973,293.664154 
	C369.805450,295.126465 369.906921,295.323853 369.970978,306.517273 
	C370.087311,326.844543 370.104126,347.172363 370.164612,368.500000 
M243.844818,625.588257 
	C250.183594,627.614136 256.554260,629.547241 262.845673,631.710815 
	C265.418304,632.595459 267.141907,632.294617 268.809723,629.959656 
	C271.808258,625.761475 275.399597,621.969482 278.216644,617.663269 
	C282.106293,611.717468 287.676971,608.763611 294.364899,608.030396 
	C308.731415,606.455261 321.809967,601.348389 334.188293,594.211243 
	C338.918610,591.483887 343.941040,590.198975 349.318237,589.564026 
	C354.742126,588.923462 360.347076,588.989258 365.466339,586.665527 
	C368.241943,585.405640 370.363342,583.413452 369.546387,580.070068 
	C368.797546,577.005493 366.230530,576.140564 363.332886,576.144531 
	C358.334747,576.151306 353.336578,576.176086 348.338440,576.193542 
	C345.341858,576.203979 342.166138,575.906860 342.179871,572.080872 
	C342.192322,568.619080 345.425598,568.061096 348.050110,567.941528 
	C353.536407,567.691528 359.041382,567.786255 364.537750,567.839722 
	C371.418243,567.906616 375.532410,565.772217 375.587708,561.977051 
	C375.644714,558.066467 371.559326,555.538025 364.846649,555.435486 
	C359.016144,555.346436 353.184204,555.353760 347.352936,555.312378 
	C344.570129,555.292603 342.180450,554.394287 342.061768,551.268372 
	C341.935272,547.937134 344.634186,547.387634 347.235352,547.125061 
	C348.557465,546.991577 349.898315,546.986206 351.229340,547.007812 
	C358.222137,547.121216 365.214111,547.289978 372.207153,547.380859 
	C375.775299,547.427246 379.073547,546.735840 379.660095,542.448669 
	C380.252838,538.116211 377.673981,535.923035 373.780029,535.209412 
	C371.012543,534.702271 368.170166,534.497803 365.352478,534.392639 
	C359.362518,534.169128 353.356262,534.265930 347.378326,533.888367 
	C344.741730,533.721802 341.678162,532.946655 341.917297,529.355164 
	C342.165405,525.629456 345.265350,525.756470 347.967346,525.848450 
	C356.286804,526.131531 364.601746,526.557861 372.922180,526.797974 
	C377.980743,526.943970 381.628815,524.529114 381.333374,521.056519 
	C380.937988,516.408813 377.379059,515.297546 373.439972,515.137146 
	C364.622345,514.778076 355.753143,514.980896 346.992096,514.093750 
	C332.090576,512.584778 319.863495,517.166504 307.692230,526.023071 
	C276.923340,548.412354 246.382706,570.861328 222.176346,600.691956 
	C219.205048,604.353638 216.077484,607.888428 212.692062,611.870483 
	C223.050491,617.381714 232.982605,621.574402 243.844818,625.588257 
M342.012512,482.281189 
	C341.963959,393.973969 341.913940,305.666779 341.868225,217.359558 
	C341.860016,201.531326 341.809967,185.702682 341.919708,169.875198 
	C341.942505,166.587845 342.055878,162.256348 346.658447,162.618317 
	C350.900574,162.951950 350.840942,166.958176 350.713440,170.446426 
	C350.524933,175.602264 350.466003,180.765305 350.467163,185.925247 
	C350.474670,219.226730 350.482239,252.528290 350.549805,285.829681 
	C350.640717,330.629486 350.797638,375.429077 350.902527,420.228821 
	C350.950928,440.889465 350.965027,461.550262 350.938446,482.210907 
	C350.934174,485.531250 351.218140,488.070709 355.646149,488.018219 
	C361.335388,487.950775 361.867065,487.697479 361.840271,481.857025 
	C361.634491,437.043365 361.527161,392.230103 361.183929,347.416046 
	C360.610962,272.610199 360.760834,197.798569 360.712860,122.989319 
	C360.708313,115.885521 359.633850,109.051392 357.364441,102.394699 
	C354.697632,94.572418 351.276733,87.082993 346.854553,78.998878 
	C341.816559,86.905037 338.858093,94.592667 336.115356,102.399612 
	C331.236877,116.285812 332.694550,130.797546 332.545380,144.990616 
	C331.934265,203.121490 332.256470,261.261658 331.786621,319.394745 
	C331.600830,342.381561 331.436920,365.367859 331.370544,388.355286 
	C331.279633,419.844971 331.205688,451.334808 331.048126,482.824188 
	C331.030823,486.282501 332.026611,488.110107 335.859955,488.010101 
	C339.278656,487.920898 342.439636,488.017365 342.012512,482.281189 
M428.466095,631.061768 
	C436.860016,621.006592 442.855835,609.471924 448.635925,597.849426 
	C462.864471,569.239258 471.205078,538.895142 474.534119,507.170776 
	C475.505096,497.918030 475.917267,488.606140 476.553162,479.319122 
	C476.721436,476.861694 476.401154,474.677826 472.969452,474.521149 
	C472.048126,477.049866 471.165863,479.363037 470.359558,481.702362 
	C466.159485,493.888672 460.235016,505.200378 453.343292,516.070129 
	C435.865143,543.636841 412.802246,565.273010 384.493622,581.401733 
	C381.142365,583.311096 378.202942,585.466370 376.229797,589.055847 
	C374.349731,592.476013 371.110260,594.660156 367.180176,595.640137 
	C365.931885,595.951355 363.955170,595.951111 363.759796,597.312683 
	C362.921173,603.156982 359.776215,609.605042 362.560822,614.818970 
	C367.590759,624.237183 369.038452,633.130737 363.691284,642.784607 
	C364.644623,642.942322 365.125092,643.099426 365.602173,643.089661 
	C385.544006,642.683350 404.862640,638.311279 424.173248,633.881042 
	C425.706238,633.529297 426.905029,632.705750 428.466095,631.061768 
M322.816895,420.500000 
	C322.816895,399.474243 322.816895,378.448486 322.816895,357.904572 
	C319.870148,360.393768 317.434204,363.457214 314.259766,364.944122 
	C304.805298,369.372711 302.571991,377.628387 301.497284,386.745178 
	C301.438751,387.241455 301.414490,387.746338 301.304382,388.231354 
	C295.387939,414.286041 284.324310,437.342468 262.181519,453.598022 
	C253.281631,460.131653 243.238678,464.795715 232.775925,468.269745 
	C228.022827,469.847931 227.160294,472.004059 229.353516,476.226440 
	C230.573975,478.576080 231.276108,481.191376 232.262802,483.666595 
	C240.508011,504.350708 252.517029,522.588867 267.824982,538.729858 
	C270.549103,541.602295 272.714844,541.795044 275.830597,539.287842 
	C281.793274,534.489807 287.890472,529.864990 294.403076,525.770874 
	C298.812683,522.998718 302.737976,519.456238 306.879883,516.258301 
	C300.364716,515.404053 294.412048,516.216370 288.518616,518.002563 
	C283.454529,519.537476 280.915497,518.140015 280.009674,513.348633 
	C278.287445,504.238922 278.819366,495.069550 280.296387,486.002838 
	C281.041046,481.431702 283.657227,480.290466 287.944672,481.887177 
	C297.246552,485.351227 307.051697,486.238068 316.765320,487.637878 
	C321.305359,488.292145 322.862213,486.749390 322.813507,481.993225 
	C322.606934,461.830933 322.779816,441.664764 322.816895,420.500000 
M559.978943,517.519775 
	C544.837646,496.155029 522.401245,487.732788 497.764435,481.685394 
	C502.216248,519.687744 506.553589,556.713318 511.007477,594.733459 
	C516.415710,590.880554 520.797729,587.895630 525.033936,584.716370 
	C540.918823,572.794861 555.807068,559.776489 568.899170,544.773743 
	C571.137939,542.208252 571.546082,539.823120 570.206421,536.612976 
	C567.498657,530.124573 564.060791,524.062012 559.978943,517.519775 
M178.831711,486.411346 
	C173.271240,488.650330 167.640228,490.730072 162.163132,493.157227 
	C143.565170,501.398743 130.945984,515.286987 123.215874,534.029236 
	C121.159248,539.015686 122.187012,542.364502 125.617462,546.021851 
	C141.171341,562.604614 157.983047,577.724915 176.708786,590.658875 
	C178.140015,591.647400 179.422363,593.201477 182.496414,592.719849 
	C186.638748,555.988525 190.804520,519.049194 195.094040,481.012787 
	C188.991943,483.054810 184.289200,484.628571 178.831711,486.411346 
M377.337372,264.694458 
	C379.642029,264.422607 381.946960,263.943420 384.251312,263.946014 
	C386.021912,263.948029 387.465363,265.057709 387.728516,266.956543 
	C388.012543,269.006195 386.575623,270.006897 384.869690,270.454895 
	C382.297363,271.130432 379.677429,271.628906 377.070862,272.169464 
	C369.183746,273.805145 369.340881,273.799652 369.302948,281.705170 
	C369.283813,285.689819 370.529358,286.925873 374.626770,286.389832 
	C402.846954,282.697937 431.101562,279.269714 459.325836,275.608215 
	C465.855957,274.761047 472.504669,274.252380 478.718842,272.000763 
	C477.551544,261.400482 476.753723,260.832153 467.589905,263.633148 
	C465.360046,264.314728 463.151581,265.103760 460.880829,265.606720 
	C455.195770,266.865967 449.502563,268.116455 443.766907,269.105408 
	C441.453644,269.504303 438.157990,270.460419 437.477783,267.048370 
	C436.743896,263.367004 440.270569,263.197815 442.727081,262.469208 
	C443.999207,262.091919 445.324585,261.892029 446.628326,261.623749 
	C454.782410,259.946045 462.939148,258.312347 470.728973,255.224045 
	C475.711029,253.248871 473.894684,249.093445 473.634705,245.783356 
	C473.342010,242.056488 470.121521,243.660751 468.075562,243.839493 
	C451.655975,245.273972 435.251251,246.852417 419.050049,250.041107 
	C417.594757,250.327545 416.067719,250.307907 414.573059,250.320648 
	C412.892548,250.334930 411.609985,249.534378 411.250061,247.864746 
	C410.867432,246.089920 412.026093,244.965881 413.523438,244.476364 
	C415.570374,243.807159 417.704926,243.392700 419.816620,242.937149 
	C435.470886,239.560165 451.294739,237.443741 467.278992,236.448395 
	C470.618927,236.240417 473.359863,235.534332 472.819672,230.798370 
	C472.322662,226.440613 470.247040,225.566345 466.530396,226.182236 
	C465.057068,226.426392 463.544769,226.424149 462.058014,226.600098 
	C435.750275,229.713516 409.654785,234.240219 383.761993,239.697449 
	C366.276306,243.382782 369.630157,238.842484 369.361145,256.754211 
	C369.351135,257.420441 369.366638,258.087067 369.373138,258.753479 
	C369.444336,266.041168 369.444519,266.041168 377.337372,264.694458 
M489.078827,479.910156 
	C485.561829,478.098083 485.454376,478.139496 485.178802,482.489105 
	C484.169189,498.424957 482.788116,514.304749 479.615204,529.998413 
	C473.443970,560.522522 464.093048,589.844055 447.627655,616.554504 
	C445.340729,620.264465 443.167480,624.044495 440.470764,628.584717 
	C442.325562,628.113220 443.127808,627.979370 443.880249,627.707703 
	C462.222961,621.084106 479.872589,612.992554 496.982117,603.593994 
	C502.224396,600.714355 503.312256,597.316345 502.580750,591.942383 
	C500.452209,576.306213 498.582611,560.633606 496.728241,544.961487 
	C494.189209,523.503235 491.757629,502.032257 489.078827,479.910156 
M217.093704,545.181396 
	C211.762558,524.491577 208.152084,503.546509 207.674454,482.129364 
	C207.643372,480.735687 208.115494,478.731903 205.993622,478.537018 
	C203.683121,478.324799 203.566559,480.318024 203.368149,481.994476 
	C202.332001,490.749908 201.239151,499.499146 200.278427,508.262848 
	C197.395584,534.559570 194.687622,560.876160 191.661026,587.156128 
	C190.194122,599.893250 190.258835,600.339478 201.672089,606.245789 
	C204.045929,607.474243 205.627548,607.213562 207.321243,605.281921 
	C213.687256,598.021606 220.050278,590.755981 226.568741,583.633606 
	C228.482056,581.542969 228.369904,579.702332 227.354156,577.333435 
	C223.012314,567.207581 219.786713,556.712769 217.093704,545.181396 
M289.840851,271.154572 
	C296.561066,269.229858 303.270599,267.266632 310.006866,265.399841 
	C312.626068,264.673981 315.783722,263.955933 316.821991,267.306427 
	C317.857605,270.648285 314.608643,271.410919 312.298615,272.040100 
	C288.484833,278.526398 265.516388,287.481384 242.357513,295.878754 
	C240.901260,296.406769 238.535477,296.352417 238.742294,298.589111 
	C238.952591,300.863251 239.671112,303.315765 241.982178,304.470673 
	C243.839188,305.398743 245.931793,304.792145 247.893463,304.536224 
	C260.434479,302.900177 272.976898,301.270233 285.501282,299.512787 
	C296.873627,297.917053 308.233185,296.222992 319.578247,294.443817 
	C323.504059,293.828156 324.858032,291.016113 323.649414,286.532562 
	C322.661896,282.869202 320.045258,284.565979 317.996674,285.024384 
	C309.063354,287.023285 300.168732,289.196136 291.228882,291.164307 
	C289.046082,291.644867 286.125641,292.538635 285.257751,289.454865 
	C284.430237,286.514771 287.406921,285.999390 289.312256,285.425385 
	C297.278931,283.025391 305.271332,280.688324 313.328247,278.615631 
	C325.970581,275.363373 323.330109,277.165863 323.740173,265.886475 
	C323.830963,263.389801 323.774597,260.887543 323.875671,258.391510 
	C324.009552,255.084885 322.893494,253.838394 319.387024,254.867996 
	C292.230286,262.842133 265.069977,270.797119 238.719986,281.233521 
	C233.424347,283.330963 233.124069,284.710938 236.980179,289.823242 
	C254.235672,283.619263 271.461914,276.942200 289.840851,271.154572 
M266.969604,144.474594 
	C242.053818,161.323776 226.727722,196.011597 227.376022,210.555161 
	C229.944489,208.756699 232.334518,206.547836 235.140198,205.211777 
	C246.935684,199.594833 254.291016,190.166855 259.295044,178.435837 
	C261.918396,172.285889 265.526245,166.713669 270.338348,161.946121 
	C282.759979,149.639526 298.191864,143.492523 314.935364,140.104141 
	C325.022888,138.062729 324.911530,138.204544 324.956879,128.127563 
	C324.975342,124.028511 323.584076,122.991783 319.581787,123.605484 
	C300.672821,126.504974 283.325256,133.236404 266.969604,144.474594 
M244.550323,522.924255 
	C233.395569,508.031525 225.946701,491.227844 220.126205,473.929810 
	C216.519257,474.151123 216.262726,476.176361 216.340820,478.261871 
	C216.515228,482.919128 216.770737,487.574188 217.057938,492.226196 
	C218.677216,518.455383 223.814133,543.975830 232.619278,568.740356 
	C233.194153,570.357178 233.278076,572.438599 235.697388,573.311157 
	C243.687729,565.220093 252.127289,557.432678 261.226990,550.447144 
	C264.666687,547.806580 264.272858,546.077515 261.522858,543.450867 
	C255.242920,537.452698 249.609253,530.883972 244.550323,522.924255 
M281.398499,185.931412 
	C291.603119,174.768311 304.539246,168.832214 319.190094,166.167297 
	C321.266327,165.789627 323.702515,165.926682 324.053741,162.920105 
	C324.650696,157.810028 325.156189,152.706192 323.813629,147.760681 
	C323.274872,147.527298 322.976685,147.289291 322.677063,147.287567 
	C321.514740,147.280838 320.329468,147.216431 319.192749,147.409302 
	C295.270233,151.468338 274.956787,160.718079 264.463440,184.661850 
	C259.603027,195.752396 252.474579,204.951370 240.972977,210.131683 
	C236.378494,212.201035 232.613068,215.605865 229.382935,219.478012 
	C225.560883,224.059677 223.966660,229.339035 224.345871,236.477905 
	C228.109116,231.245895 231.291351,227.288330 235.692932,224.357010 
	C241.194870,220.692871 247.263199,218.508804 253.465775,216.574081 
	C261.517029,214.062698 267.423523,209.190231 271.282837,201.601120 
	C273.994446,196.268875 277.013031,191.064102 281.398499,185.931412 
M420.209320,191.969925 
	C415.517761,193.729828 410.687561,195.114441 405.744537,195.748825 
	C397.996124,196.743225 390.078430,196.716858 382.437592,198.188049 
	C367.518494,201.060638 367.861542,205.887985 370.345764,220.050507 
	C370.822418,219.898941 371.355225,219.845535 371.748352,219.583023 
	C372.992249,218.752472 374.225281,217.895004 375.389191,216.956970 
	C383.464325,210.448944 392.214111,205.958054 402.951355,205.404068 
	C415.743622,204.744049 427.930176,201.337097 438.819336,194.318848 
	C449.742706,187.278580 454.681854,177.127121 453.491699,164.154861 
	C452.958313,158.341187 449.785217,156.405838 444.234863,158.047668 
	C429.438873,162.424362 415.576447,168.736618 402.892212,177.591721 
	C397.652466,181.249664 392.036255,184.397507 386.783234,189.612061 
	C399.538605,189.227310 411.236389,188.443604 422.001801,182.736221 
	C428.391388,179.348724 432.650452,174.361420 433.935486,167.057190 
	C434.340698,164.754089 434.870544,161.931259 437.956970,162.354080 
	C440.774719,162.740112 441.117798,165.553009 441.108307,167.883453 
	C441.101013,169.670181 440.669800,171.528290 440.067780,173.227341 
	C436.767914,182.540436 429.790924,188.101471 420.209320,191.969925 
M412.038483,137.579559 
	C398.528320,147.099167 386.959991,158.782410 374.977631,170.068558 
	C367.897522,176.737335 369.284576,184.032578 369.618378,192.451569 
	C371.033844,191.555664 371.877228,191.109726 372.622559,190.536362 
	C379.341064,185.368195 385.877686,179.945831 392.782684,175.041504 
	C407.651001,164.481064 423.738892,156.267548 441.207855,150.848068 
	C443.578796,150.112503 446.822998,150.052612 445.801666,145.901901 
	C444.174255,139.288391 442.817078,132.617188 440.604095,126.145615 
	C439.334961,122.434250 437.621307,122.135437 434.352509,123.950729 
	C426.930145,128.072647 419.688416,132.466553 412.038483,137.579559 
M303.521149,494.154663 
	C298.361725,493.254089 293.202271,492.353485 287.951935,491.437012 
	C286.835480,496.373444 287.294891,500.870148 287.407440,505.336609 
	C287.485870,508.449463 288.816833,509.828064 292.239441,508.736511 
	C299.444214,506.438751 306.958801,506.002228 314.444916,505.940063 
	C333.421356,505.782471 352.399506,505.823578 371.376984,505.803497 
	C382.345245,505.791870 393.216400,506.840454 403.845886,509.368073 
	C405.326202,504.509735 405.866577,497.525635 405.267578,494.703125 
	C404.729340,492.166656 403.724091,491.075287 400.799622,491.698212 
	C368.833252,498.506836 336.635345,497.239929 303.521149,494.154663 
M319.535675,610.219238 
	C314.229889,612.195312 308.908234,614.119507 303.190826,614.523132 
	C289.967133,615.456970 281.938080,623.207153 276.284790,635.317383 
	C293.663483,639.564270 310.922546,642.189392 329.507843,643.110657 
	C324.804901,633.958008 323.774048,625.933716 329.384674,618.395935 
	C332.505127,614.203674 331.659821,610.449585 329.419952,605.952209 
	C326.257355,607.320618 323.250458,608.621643 319.535675,610.219238 
M235.060913,336.216705 
	C235.396301,334.646698 235.731689,333.076721 236.186432,330.947968 
	C229.993027,337.587219 225.968735,344.766785 224.330521,353.074982 
	C220.927536,370.333313 226.486450,384.879272 239.635788,395.920380 
	C253.300827,407.394623 269.117767,408.687988 285.657532,402.475159 
	C289.396790,401.070587 290.751099,398.127106 291.093506,394.081390 
	C290.023804,394.276886 289.187408,394.287933 288.466583,394.582184 
	C268.910492,402.564941 245.929718,390.684692 237.402878,369.859314 
	C232.944290,358.969940 233.454224,348.130005 235.060913,336.216705 
M261.527802,386.075775 
	C270.117828,389.886871 278.847076,390.302490 287.738586,387.195801 
	C294.035217,384.995789 295.608551,382.255402 294.358948,375.526917 
	C294.057159,375.400177 293.756622,375.167480 293.453400,375.164032 
	C291.624390,375.143066 289.792389,375.241272 287.965637,375.177917 
	C273.920746,374.690857 263.054596,368.726196 255.963058,356.407806 
	C251.643509,348.904480 250.340591,340.469238 248.732315,332.146820 
	C248.336761,330.099945 248.487579,327.847076 245.611237,326.770111 
	C242.889435,334.127472 242.459885,341.533234 241.928833,348.984985 
	C240.775864,365.163422 246.819122,377.461426 261.527802,386.075775 
M290.319794,366.990570 
	C304.984344,366.019775 319.088989,353.414032 321.588165,339.095032 
	C322.222534,335.460449 321.343506,332.868286 317.399170,332.103271 
	C317.030762,332.342010 316.644043,332.454010 316.501465,332.704803 
	C305.332367,352.352753 285.958649,352.401031 270.503418,341.199615 
	C266.697418,338.441132 262.200470,336.859131 257.508698,335.243042 
	C260.711823,357.239807 270.799622,367.145966 290.319794,366.990570 
M452.774628,220.028275 
	C456.578918,219.597015 460.373993,219.025726 464.190125,218.774307 
	C467.933990,218.527679 469.413696,217.154663 467.823700,213.368881 
	C466.018433,209.070450 464.547455,204.625900 462.621063,200.385757 
	C460.865479,196.521606 459.286469,192.454239 455.308411,189.135315 
	C447.353668,199.948776 436.498260,206.094574 424.039185,209.597702 
	C415.312897,212.051270 411.768616,219.486496 406.259369,226.842163 
	C422.345367,224.509430 437.124542,222.366211 452.774628,220.028275 
M206.953918,257.543060 
	C202.559937,252.735107 197.346786,249.382629 190.771805,248.470749 
	C181.010666,247.116989 174.294739,251.708893 171.977448,261.317505 
	C170.641815,266.855713 171.302261,272.242859 172.980286,277.898804 
	C182.144775,264.709930 193.562195,264.568939 203.000061,277.159363 
	C203.598282,277.957428 204.239441,278.724121 204.820236,279.534363 
	C207.525436,283.308228 211.373306,285.233521 215.824188,285.587555 
	C219.142563,285.851532 223.536987,287.209259 225.196472,283.184296 
	C226.694366,279.551270 224.352066,276.029205 221.614014,273.462097 
	C216.502441,268.669647 211.995316,263.350128 206.953918,257.543060 
M295.464874,253.820404 
	C300.248627,252.432724 305.039948,251.070496 309.814728,249.652634 
	C324.643188,245.249390 324.553833,245.244385 323.984833,229.679108 
	C323.853882,226.096756 322.478607,224.921051 319.096954,225.448792 
	C301.767151,228.153259 287.879242,236.260651 278.453674,251.336151 
	C276.848328,253.903793 275.121429,256.486115 274.574066,260.371674 
	C281.762207,258.110809 288.230408,256.076355 295.464874,253.820404 
M337.283356,620.658264 
	C337.057343,620.902283 336.809021,621.129333 336.608551,621.392822 
	C331.774261,627.746643 332.245453,634.928223 337.801178,639.649536 
	C342.929504,644.007629 350.372192,643.714600 354.970398,638.973633 
	C360.125153,633.658813 360.365723,626.284119 355.140594,620.701294 
	C352.606262,617.993469 352.603455,615.168457 353.070953,611.947571 
	C353.754761,607.236511 355.137238,602.588745 354.710022,597.467529 
	C352.032593,596.917603 349.641296,597.748169 347.235901,598.100586 
	C338.170227,599.428589 336.573456,601.979797 339.411163,610.887695 
	C340.502197,614.312683 340.536316,617.417297 337.283356,620.658264 
M191.878571,317.578033 
	C195.984619,324.234344 200.965027,330.075897 208.624039,332.593475 
	C214.869583,334.646454 221.578506,335.992828 226.958893,330.808685 
	C230.626572,327.274811 232.470322,322.332245 234.669678,316.916534 
	C230.092041,319.205139 226.374878,321.401825 222.409866,322.972992 
	C214.946472,325.930389 204.905991,323.597595 201.355209,318.392029 
	C200.293213,316.835114 199.341537,315.091492 200.869858,313.396271 
	C202.296570,311.813751 203.846848,312.793213 205.376678,313.584442 
	C215.068176,318.596649 224.883209,316.850067 232.030960,308.944397 
	C232.739944,308.160248 233.448380,307.449371 232.919022,306.351135 
	C231.641739,303.701111 231.551773,300.509949 228.896606,297.787567 
	C216.874298,309.303467 202.770294,310.719818 187.099289,305.073853 
	C188.055038,309.802765 189.521057,313.467163 191.878571,317.578033 
M276.017975,312.296082 
	C273.936432,308.152100 270.108124,308.344788 266.964050,309.755005 
	C263.433685,311.338501 265.646698,314.666016 266.274780,317.235901 
	C267.805603,323.499512 270.842316,329.002350 275.072876,333.853607 
	C280.675720,340.278381 287.819580,342.139282 295.885406,340.377991 
	C302.807526,338.866455 307.352020,334.361206 310.745636,327.345917 
	C295.754272,329.556976 284.440796,324.948547 276.017975,312.296082 
M209.735672,229.704788 
	C203.259186,225.729843 196.333435,224.759995 189.183929,227.271210 
	C182.542953,229.603821 180.140198,234.532211 182.194885,241.105103 
	C197.161026,238.545685 207.769196,246.242935 217.644424,258.098083 
	C217.008514,251.310760 216.152374,246.078812 216.135101,240.844101 
	C216.119141,236.007996 214.455002,232.520844 209.735672,229.704788 
M181.181534,278.697540 
	C177.631073,285.102081 177.922348,287.813721 183.128128,292.698975 
	C189.493683,298.672546 197.038177,301.671875 205.843704,300.775421 
	C211.782593,300.170776 217.173141,298.169983 221.649841,293.544189 
	C209.199051,294.927032 201.338409,288.862793 195.100174,279.129639 
	C192.020538,274.324677 186.709930,274.355927 181.181534,278.697540 
M399.133942,128.396439 
	C390.832947,126.055878 382.603577,123.460205 373.860413,123.125534 
	C370.350769,122.991188 368.941071,124.295853 369.235535,127.730301 
	C369.362823,129.215256 369.378632,130.726089 369.267365,132.211868 
	C369.025909,135.435623 370.589539,136.504288 373.657990,136.782639 
	C379.610809,137.322632 385.453003,138.634354 391.218964,140.223785 
	C392.677765,140.625931 394.225983,141.265137 395.539856,140.290558 
	C399.332642,137.477219 403.561615,135.202881 406.977814,131.671753 
	C404.734131,129.757492 402.119507,129.635391 399.133942,128.396439 
M187.593597,217.330841 
	C188.320465,218.939667 188.355484,219.093689 190.509628,218.603897 
	C196.238510,217.301285 201.748413,218.423279 207.256027,219.838730 
	C210.112198,220.572754 212.349274,222.918839 215.916626,223.254166 
	C217.418594,217.076965 218.606537,211.050339 219.012405,204.655014 
	C205.869553,202.942520 195.905060,207.360977 187.593597,217.330841 
M394.352020,227.945480 
	C399.745605,224.005524 403.342773,218.651169 406.968353,212.753693 
	C391.670441,213.442337 368.820801,226.960159 370.274811,234.478027 
	C378.123779,232.472794 386.493835,232.672668 394.352020,227.945480 
M323.588257,321.332672 
	C323.629456,316.193481 323.638458,311.053741 323.726135,305.915344 
	C323.766968,303.522095 322.980225,301.947052 320.308624,302.306427 
	C315.466553,302.957764 310.558594,303.335175 305.522369,305.006714 
	C308.425018,314.530121 314.000610,321.183350 322.274658,325.548157 
	C323.853699,324.434662 323.360687,323.158264 323.588257,321.332672 
M471.688477,188.186935 
	C471.535339,179.521057 468.686676,172.050446 461.448853,165.203079 
	C461.747498,170.571945 461.180664,174.804199 460.046997,178.944962 
	C459.722321,180.130829 459.636780,181.215698 460.498566,182.230682 
	C463.937714,186.281113 466.361389,191.018448 469.224335,195.736160 
	C470.900574,193.528290 471.409485,191.314713 471.688477,188.186935 
M384.088440,150.744553 
	C385.047363,149.716644 386.758789,149.258728 386.644257,146.990936 
	C382.189972,145.442139 377.454254,144.784271 372.709106,144.216690 
	C370.800720,143.988403 369.373230,144.708710 369.356995,146.886002 
	C369.315521,152.443619 369.343170,158.001770 369.343170,164.788605 
	C374.751770,159.614151 379.161163,155.395615 384.088440,150.744553 
M299.410492,319.887085 
	C300.676819,319.811707 302.086884,320.276489 303.234894,318.659241 
	C301.718750,314.876099 300.155945,310.924530 298.545074,306.992645 
	C298.128967,305.976898 297.207642,305.363068 296.166504,305.584259 
	C291.751984,306.522156 287.126617,306.501160 282.418152,308.276764 
	C286.284332,314.834106 291.482239,318.671265 299.410492,319.887085 
M249.770050,312.200958 
	C248.477509,312.590240 246.699951,311.666107 245.840942,313.776184 
	C249.955658,320.016937 255.512924,324.713135 262.243896,328.888977 
	C261.384949,326.677216 260.660767,325.021851 260.100128,323.312805 
	C259.480621,321.424347 258.888489,319.511322 258.498383,317.566071 
	C257.195801,311.070587 257.232452,311.063232 249.770050,312.200958 
z"/>
<path fill="#000000" opacity="1.000000" stroke="none" 
	d="
M472.189087,320.279846 
	C466.700439,317.304047 465.125732,312.554718 468.031036,308.817932 
	C469.113556,307.425568 470.475830,306.486847 472.336273,307.061554 
	C473.894196,307.542786 474.900177,308.596130 474.897430,310.334381 
	C474.895630,311.478912 474.836761,312.462555 475.688965,313.549957 
	C478.941895,317.700592 478.199463,319.204224 472.189087,320.279846 
z"/>
</svg>