<svg version="1.1" id="Layer_1" xmlns="http://www.w3.org/2000/svg" xmlns:xlink="http://www.w3.org/1999/xlink" x="0px" y="0px"
	 width="100%" viewBox="0 0 1024 768" enable-background="new 0 0 1024 768" xml:space="preserve">
<path fill="#000000" opacity="1.000000" stroke="none" 
	d="
M335.083252,246.812256 
	C414.457947,286.641449 447.052185,384.978516 407.241302,463.647614 
	C366.988312,543.190369 269.894409,575.769226 191.312576,536.507507 
	C110.881081,496.321594 77.510338,399.672699 117.343903,319.985718 
	C157.977936,238.697388 254.649658,206.251221 335.083252,246.812256 
M223.926880,437.414551 
	C225.734665,434.754089 228.222519,432.399353 228.054520,428.021851 
	C217.542282,429.598938 208.122650,427.601257 201.005814,419.565125 
	C193.956802,411.605469 192.270889,402.247314 195.550476,391.851959 
	C184.519043,390.196960 178.182114,383.784943 175.384323,373.789093 
	C174.518066,370.694061 173.332108,368.025085 171.340591,365.445465 
	C165.428696,357.787659 165.076904,349.981323 170.094452,341.809387 
	C171.309341,339.830719 171.601929,337.865814 171.722641,335.677307 
	C172.370087,323.941223 180.758774,315.368561 192.527679,314.844147 
	C195.936264,314.692230 197.471024,313.514160 198.639969,310.399933 
	C202.026978,301.376404 207.208603,293.533783 214.782257,287.351501 
	C223.765411,280.018616 233.944763,275.349213 245.327499,273.391876 
	C249.048386,272.752045 251.010971,271.184082 251.901459,267.272400 
	C253.345993,260.926880 256.224731,255.036758 259.525085,249.413162 
	C261.589966,245.894775 263.261871,245.830139 265.167419,249.362717 
	C267.298859,253.313965 270.001129,257.278717 270.816772,261.550415 
	C272.438721,270.045044 277.383453,272.514893 285.359863,274.447174 
	C293.922363,276.521454 301.362213,278.599792 308.861755,272.369904 
	C311.106140,270.505524 313.334961,271.493958 314.273529,274.353699 
	C315.569550,278.302582 317.099091,282.224152 317.865295,286.282654 
	C318.534424,289.826691 320.046875,292.126434 323.055389,294.210388 
	C329.021057,298.342743 333.258392,304.483398 331.290039,311.643158 
	C329.350739,318.697083 330.053131,324.871246 332.205597,331.420532 
	C332.970947,333.749176 333.386597,336.383453 333.170807,338.807800 
	C332.543793,345.852753 335.118408,351.873535 338.513367,357.697937 
	C340.190186,360.574799 342.096832,363.317596 343.776184,366.193085 
	C347.678619,372.874939 347.056427,375.578522 340.259705,379.557800 
	C337.543854,381.147827 337.348267,382.760193 337.976868,385.683624 
	C338.979065,390.344666 337.939606,395.397461 335.764709,399.274139 
	C334.075836,402.284546 333.164551,404.469421 333.900421,407.848083 
	C335.715149,416.180054 331.094513,421.774170 322.521790,422.316467 
	C317.475250,422.635620 312.570557,421.704132 307.630402,421.005646 
	C303.620331,420.438660 300.333405,421.653687 298.267670,425.227539 
	C294.004547,432.602936 295.623505,439.673187 302.755219,444.203156 
	C310.412506,449.067047 319.008789,451.842285 327.543304,454.659515 
	C337.498993,457.945862 347.717438,460.417633 357.468964,464.346313 
	C367.601135,468.428314 375.326508,475.148468 380.430054,484.871033 
	C381.222473,486.380676 381.373627,488.489014 383.477631,489.086761 
	C429.820984,435.474152 434.802612,343.817383 373.420380,281.324066 
	C311.698303,218.484787 210.623703,217.985443 147.963776,284.970123 
	C90.465103,346.437347 95.381615,435.771271 141.202011,488.936371 
	C142.313721,488.598022 142.567337,487.570984 142.950546,486.680206 
	C147.572449,475.936920 155.946915,469.251434 166.397888,464.674957 
	C174.216553,461.251160 182.533218,459.408417 190.554733,456.660980 
	C202.659286,452.515076 215.151459,448.852509 223.926880,437.414551 
M293.036774,410.488281 
	C302.085602,414.462921 311.355957,417.726562 321.383179,417.625336 
	C327.861389,417.559967 330.338776,414.103210 328.995361,407.889587 
	C328.299774,404.672241 327.694092,401.435425 327.117828,398.557068 
	C328.171112,396.159882 331.362671,397.806671 332.069672,395.057678 
	C329.927338,392.632935 327.486725,394.382446 325.235840,394.703186 
	C323.628815,394.932190 321.595123,396.080414 320.880127,393.991150 
	C319.995361,391.405823 322.650055,391.250183 324.224030,390.696686 
	C327.162323,389.663422 330.177368,388.848541 333.785522,387.752991 
	C330.974731,381.370880 333.719666,377.394196 339.164551,374.573792 
	C340.866669,373.692047 341.459412,371.905304 340.527740,370.275848 
	C338.550415,366.817657 336.661346,363.181122 334.016327,360.272186 
	C331.816895,357.853333 328.595581,360.049683 325.912628,360.366089 
	C310.225739,362.216278 294.568115,364.313751 278.897430,366.302795 
	C276.391388,366.620880 274.559357,367.103363 274.592377,370.449677 
	C274.891449,400.766022 275.029266,431.083862 275.256744,461.400970 
	C275.268585,462.976959 274.696075,464.765686 276.501282,466.291656 
	C281.584259,465.946136 286.850464,465.489899 291.936066,463.751587 
	C295.249878,462.618835 297.168976,463.722992 297.237915,467.333496 
	C297.317322,471.494019 297.336121,475.657867 297.264984,479.818329 
	C297.213043,482.857086 295.594299,484.022217 292.649017,483.179382 
	C290.423462,482.542450 288.227936,481.747253 285.425079,482.327240 
	C284.073944,491.532349 282.711456,500.814514 281.243073,510.818359 
	C298.755219,500.046356 311.486847,486.149261 319.830505,468.290802 
	C324.230133,458.874023 324.197632,458.865692 314.832672,455.283905 
	C313.433685,454.748840 312.080017,454.095795 310.682953,453.555359 
	C304.695923,451.239532 299.122375,448.153778 293.956085,443.538818 
	C292.995056,447.775330 292.282135,451.015930 291.517883,454.244324 
	C291.156891,455.769073 290.536194,457.368164 288.626282,456.986786 
	C286.643921,456.590973 286.884430,454.924286 287.190552,453.363007 
	C288.373962,447.327301 289.614655,441.300659 290.657043,435.240173 
	C291.731232,428.994934 292.772491,422.783356 298.201569,418.037109 
	C290.885986,415.012848 284.372162,411.732117 278.821594,406.850067 
	C277.567719,405.747223 275.994385,404.493500 277.394470,402.684540 
	C279.017944,400.586914 280.637390,401.926361 282.024811,403.232391 
	C285.090942,406.118835 288.610779,408.309387 293.036774,410.488281 
M210.119034,512.617737 
	C204.573364,518.657349 198.702377,524.424377 193.642944,531.316162 
	C201.755997,536.044373 209.965042,538.702942 218.205475,541.299744 
	C220.202438,541.929016 221.542831,541.026428 222.372604,539.488831 
	C226.586334,531.680542 233.635712,529.212036 241.895569,527.604736 
	C251.900436,525.657715 260.308014,518.291565 271.076843,518.244629 
	C272.318298,518.239197 273.605316,517.065674 273.491852,515.490356 
	C273.348175,513.495117 271.720001,513.329956 270.172058,513.293396 
	C267.677643,513.234314 265.179565,513.285889 262.687683,513.180725 
	C261.231262,513.119263 260.032074,512.446289 260.054077,510.795685 
	C260.072601,509.405487 261.207031,508.914276 262.389496,508.588776 
	C265.663727,507.687500 269.011139,508.190308 272.324463,508.032745 
	C274.145813,507.946075 276.392731,507.942566 276.439880,505.466003 
	C276.483307,503.184265 274.446320,502.540009 272.554199,502.436096 
	C269.400238,502.262970 266.232880,502.350189 263.073029,502.261353 
	C261.455139,502.215912 259.946899,501.716095 260.095032,499.736420 
	C260.221588,498.045074 261.699066,497.780060 263.075409,497.756744 
	C266.569214,497.697479 270.065063,497.749207 273.558258,497.672058 
	C275.817139,497.622192 278.895233,498.154907 278.937347,494.845306 
	C278.975525,491.843414 275.998169,491.599487 273.710327,491.451172 
	C270.227722,491.225433 266.723785,491.350433 263.232330,491.228943 
	C261.669952,491.174591 260.071777,490.718903 260.049866,488.796906 
	C260.025421,486.656097 261.821075,486.700897 263.301544,486.690094 
	C267.128601,486.662109 270.956879,486.770447 274.783417,486.723480 
	C276.684509,486.700134 279.380859,487.270142 279.440308,484.408539 
	C279.500366,481.516754 276.872162,481.379059 274.655273,481.333710 
	C269.164917,481.221375 263.673462,481.165253 258.182678,481.072266 
	C254.662933,481.012604 251.199829,481.084686 248.139709,483.246368 
	C235.238693,492.359741 222.030716,501.071686 210.119034,512.617737 
M255.080444,383.499969 
	C254.829437,408.810150 254.508499,434.120178 254.439117,459.430847 
	C254.432419,461.872742 252.252258,466.503510 257.199066,466.402802 
	C261.550720,466.314178 259.624298,462.007721 259.629364,459.624756 
	C259.739990,407.491211 259.699127,355.357391 259.738007,303.223633 
	C259.739624,301.072815 258.817871,297.715790 262.144348,297.644135 
	C265.281219,297.576569 264.807709,300.803650 264.932312,303.072052 
	C264.950500,303.404083 264.930847,303.738129 264.930237,304.071259 
	C264.886932,327.877319 264.811615,351.683411 264.808990,375.489471 
	C264.805878,403.631744 264.863586,431.774017 264.904266,459.916290 
	C264.906189,461.247498 264.956329,462.581879 265.060455,463.908813 
	C265.174957,465.367706 265.744751,466.528839 267.442200,466.546844 
	C269.154327,466.565033 269.735687,465.445007 269.791199,463.946350 
	C269.846680,462.449127 269.857819,460.949493 269.855499,459.450958 
	C269.800110,423.640350 269.830231,387.829254 269.650757,352.019257 
	C269.523895,326.709137 270.200104,301.394623 269.092194,276.086639 
	C268.769440,268.714874 266.475220,262.227692 262.257996,255.387955 
	C257.994812,262.887146 255.338593,270.019287 255.326965,278.067810 
	C255.276688,312.878601 255.163635,347.689270 255.080444,383.499969 
M325.318848,468.670990 
	C315.511841,493.613342 294.371246,507.911682 274.095886,522.964844 
	C272.476288,524.167297 271.638489,525.115112 271.155945,527.060913 
	C269.421326,534.055481 276.170837,540.094360 272.156952,547.387451 
	C281.723541,546.899719 290.011261,545.334290 298.324524,543.692810 
	C302.831055,542.802979 305.632660,540.531799 308.032318,536.807373 
	C318.391205,520.729919 324.606384,503.128754 327.665344,484.362030 
	C328.902802,476.770325 329.983185,469.122620 328.477722,461.215210 
	C327.520782,463.468292 326.563812,465.721344 325.318848,468.670990 
M224.638046,444.122559 
	C219.868423,449.492401 213.655228,452.677155 207.237656,455.511810 
	C200.681351,458.407776 200.546753,458.404297 203.307739,464.993042 
	C207.967880,476.113892 214.217041,486.173309 223.290359,494.631531 
	C229.151260,490.390686 234.606796,486.443176 241.238785,481.644409 
	C239.151840,481.785889 238.561371,481.795502 237.979156,481.869843 
	C226.789841,483.298401 226.490067,483.029388 226.849548,471.606293 
	C226.891312,470.279480 226.980087,468.946014 227.170975,467.633636 
	C227.708313,463.939453 229.315628,462.434784 233.333618,463.876282 
	C238.313400,465.662872 243.575821,466.292175 249.316162,466.263580 
	C249.316162,444.155914 249.316162,422.354187 249.316162,400.547455 
	C243.035995,404.098663 239.798447,408.959747 238.677094,416.239685 
	C237.089325,426.547668 232.203796,435.748993 224.638046,444.122559 
M178.141083,506.857544 
	C179.716751,492.904755 181.292404,478.951996 182.962479,464.163269 
	C175.921539,465.846069 170.283386,468.158752 164.776352,470.799225 
	C156.282990,474.871460 150.514740,481.481689 146.726425,490.054108 
	C145.378937,493.103241 145.782715,495.216339 148.092987,497.592987 
	C155.892899,505.616913 164.014633,513.246399 173.231567,519.640076 
	C174.127213,520.261353 174.917358,521.379700 176.532074,520.431824 
	C176.993774,516.308838 177.473663,512.023438 178.141083,506.857544 
M347.533813,517.413696 
	C348.121979,518.520325 347.729370,520.131104 349.456512,520.895325 
	C357.984131,515.466064 365.592529,508.784760 372.808350,501.631958 
	C380.051575,494.451996 380.029785,494.426361 375.040985,485.631165 
	C374.548492,484.762848 374.053406,483.889435 373.479065,483.075104 
	C365.850555,472.258667 354.886353,467.251923 341.818817,464.499634 
	C342.187378,468.645233 342.431580,472.098602 342.811035,475.537079 
	C344.323395,489.241119 345.877838,502.940582 347.533813,517.413696 
M321.736115,340.447693 
	C313.223572,340.983215 304.805023,343.245789 295.903046,343.152771 
	C296.598907,339.066589 299.099609,339.353882 300.814880,339.056824 
	C308.015167,337.809753 315.268005,336.868347 322.494080,335.765869 
	C324.434784,335.469788 327.666229,336.423828 327.316345,333.122131 
	C326.981445,329.961548 323.823090,331.166046 321.966339,331.403595 
	C314.225952,332.394012 306.509491,333.601013 298.814056,334.904449 
	C291.773743,336.096924 284.737854,337.360321 277.763214,338.882141 
	C271.836182,340.175354 274.645569,345.077576 274.618835,348.367645 
	C274.591156,351.768799 277.591827,350.480988 279.600372,350.192535 
	C281.300964,349.948273 283.244141,349.574829 283.640015,351.786499 
	C283.983765,353.707245 282.125519,354.046997 280.664215,354.421814 
	C279.858459,354.628510 279.064453,354.954529 278.247101,355.029205 
	C275.392303,355.290039 273.898071,356.696991 274.509247,359.624237 
	C275.140228,362.646301 277.493103,361.574738 279.344086,361.349548 
	C289.235260,360.146149 299.143066,359.045593 308.998535,357.593445 
	C316.142578,356.540771 323.490875,356.502533 330.444458,354.193329 
	C330.544983,350.362152 329.182953,349.295013 325.875916,350.344299 
	C322.555817,351.397736 319.166809,352.324066 315.740875,352.920197 
	C313.665405,353.281311 310.353638,354.766388 309.778412,351.682251 
	C309.272949,348.972015 312.760132,349.302765 314.677612,348.757141 
	C318.506439,347.667725 322.394623,346.788727 326.242004,345.761902 
	C327.704132,345.371674 328.500336,344.386292 328.228546,342.787262 
	C327.976593,341.304871 327.183014,340.358582 325.576294,340.339783 
	C324.578857,340.328125 323.580872,340.360657 321.736115,340.447693 
M328.533478,532.961121 
	C332.506958,530.880188 336.450378,528.738892 340.465027,526.740601 
	C342.929840,525.513733 343.484985,523.863098 343.109528,521.095642 
	C341.749664,511.071533 340.757080,500.997955 339.587738,490.947479 
	C338.527679,481.836212 337.417786,472.730743 336.329865,463.622742 
	C335.928162,463.581482 335.526459,463.540192 335.124756,463.498932 
	C333.394897,490.239624 327.426453,515.720337 313.590271,539.155640 
	C318.345673,537.200745 323.101074,535.245850 328.533478,532.961121 
M235.365524,318.846161 
	C238.327530,316.362335 241.544586,314.369812 245.315521,313.303223 
	C250.860306,311.734863 251.668457,309.892853 249.496765,303.665436 
	C240.245789,304.945557 232.779007,309.213959 228.320419,317.535553 
	C224.784668,324.134827 219.813965,328.407990 212.689072,330.482117 
	C210.647385,331.076508 208.659683,332.126282 206.884872,333.320435 
	C199.381821,338.368896 198.017166,347.844696 203.671036,354.974365 
	C206.287811,354.397461 205.552704,352.212524 205.722244,350.535461 
	C206.341110,344.414185 208.905365,339.339874 213.920380,335.729095 
	C215.971344,334.252411 218.875320,331.701721 220.822845,334.523712 
	C222.735779,337.295563 218.819016,338.068604 217.149582,339.261322 
	C212.653839,342.473206 210.411942,346.561554 210.733521,352.369873 
	C216.083923,351.558685 219.983948,349.980865 221.595520,344.580109 
	C222.690247,340.911469 225.326920,337.938782 228.020126,335.165771 
	C228.800797,334.361969 230.214203,333.623413 229.745880,332.357422 
	C227.558105,326.443054 232.049683,323.240112 235.365524,318.846161 
M193.846085,494.400238 
	C191.408051,484.260376 190.142181,473.923615 188.976547,463.556793 
	C188.483521,464.076965 188.312653,464.542511 188.242416,465.022797 
	C185.550552,483.428864 183.950577,501.961884 181.715805,520.418274 
	C181.195847,524.712524 183.282089,525.931946 186.070984,527.612610 
	C189.168686,529.479309 190.187576,526.855408 191.686493,525.298035 
	C193.646606,523.261414 195.420731,521.042603 197.419968,519.047546 
	C199.676880,516.795349 200.157288,514.501587 199.036072,511.391266 
	C197.123718,506.086304 195.691177,500.608337 193.846085,494.400238 
M216.064011,292.555725 
	C208.137421,300.406555 202.621979,309.532501 200.625366,321.019379 
	C209.311676,317.064178 212.422882,314.649963 215.635834,307.319092 
	C221.390457,294.189026 232.244217,288.408783 245.388947,285.700409 
	C250.965103,284.551483 251.476746,283.870667 249.760712,277.671082 
	C237.205978,279.014343 226.127747,283.737640 216.064011,292.555725 
M249.677216,354.793701 
	C249.737671,352.016724 250.423737,349.210938 249.445663,346.486389 
	C240.641617,346.623047 206.912125,358.468475 204.884262,362.172333 
	C206.948074,363.434631 208.764496,362.224213 210.530579,361.533722 
	C220.450439,357.655273 230.583984,354.426727 240.799759,351.444214 
	C242.949829,350.816498 245.227417,349.732788 247.847046,353.335266 
	C233.934586,358.511993 219.966263,362.286011 206.938110,368.046234 
	C207.024261,370.620422 208.209763,371.385345 210.238495,371.101044 
	C222.406723,369.395935 234.577057,367.705475 246.741058,365.970642 
	C249.064163,365.639313 250.482346,364.630737 249.168289,362.065765 
	C242.622498,361.076874 236.748810,366.345734 229.841690,364.150909 
	C231.449677,360.552429 234.460464,360.713226 236.828323,359.816895 
	C240.972794,358.248108 245.721939,358.457794 249.677216,354.793701 
M195.306519,472.243408 
	C196.851303,485.178467 198.803406,498.010834 204.313507,510.693542 
	C209.568787,506.074188 214.124252,502.069977 218.977432,497.804077 
	C208.671295,486.881836 201.111420,474.841949 196.403824,461.015717 
	C196.032181,461.168488 195.660522,461.321259 195.288879,461.474030 
	C195.288879,464.754730 195.288879,468.035431 195.306519,472.243408 
M208.107498,327.410431 
	C215.956192,325.407593 221.644562,321.045685 225.317810,313.539856 
	C228.806824,306.410522 235.522385,302.791565 242.840836,300.372833 
	C244.415024,299.852539 246.062271,299.553314 247.675812,299.152008 
	C251.420090,298.220856 250.654388,295.210358 250.523773,292.653687 
	C250.363052,289.507355 247.798981,290.009888 246.010590,290.406525 
	C235.648743,292.704712 226.145203,296.496307 221.205002,306.906860 
	C217.829880,314.019257 213.382355,319.936981 206.091797,323.578156 
	C202.610306,325.316925 200.015259,328.266968 199.325623,333.573059 
	C202.411240,330.901794 204.614044,328.854034 208.107498,327.410431 
M305.685547,279.294159 
	C294.958069,284.960449 286.140717,293.045135 277.563080,301.445587 
	C274.593964,304.353363 273.483185,307.621307 275.019226,312.103119 
	C276.883423,310.699463 278.483856,309.563202 280.009552,308.334198 
	C288.633789,301.386780 298.009766,295.639709 308.533081,292.202911 
	C313.192932,290.681030 314.100525,288.392822 312.611847,284.260162 
	C312.218353,283.167816 311.898712,282.039093 311.658569,280.903107 
	C310.907104,277.347961 308.992737,277.139618 305.685547,279.294159 
M292.556000,471.116302 
	C291.944702,469.105835 290.469391,469.398132 288.917175,469.683319 
	C271.886322,472.812622 254.810944,472.379028 237.723480,470.240662 
	C231.620880,469.476959 230.807053,470.600586 233.023529,477.094696 
	C251.063171,475.186371 269.173370,474.964111 287.213409,476.943878 
	C292.134735,477.483948 293.204742,476.119934 292.556000,471.116302 
M247.126434,546.827881 
	C248.730682,546.690247 250.345673,547.768250 252.489182,546.530884 
	C247.867203,540.881470 254.405975,535.582214 253.321762,529.191101 
	C247.644669,531.091187 242.584473,533.116943 237.175812,533.862976 
	C231.840530,534.598877 228.944183,538.212097 226.615631,543.292053 
	C233.235245,545.433350 239.763062,546.122314 247.126434,546.827881 
M298.180267,314.095398 
	C292.687103,315.609680 286.985626,315.593689 281.396667,316.396088 
	C275.084869,317.302277 273.090149,320.688171 275.699707,326.807556 
	C281.569824,320.978455 288.976837,319.435516 296.704651,318.777618 
	C301.646027,318.356903 306.036407,316.296539 310.128723,313.716431 
	C314.926758,310.691376 317.691681,306.275238 317.661316,300.448517 
	C317.635162,295.434204 315.793823,294.478943 311.101868,297.046631 
	C312.931061,300.632996 311.537506,303.778717 309.543427,306.787170 
	C307.007446,310.613129 303.114868,312.440460 298.180267,314.095398 
M203.625916,391.829407 
	C203.415817,390.802277 204.258774,389.574860 203.086624,388.678497 
	C195.675797,398.099579 197.824203,412.434540 207.645981,419.483551 
	C215.927368,425.427124 228.326370,425.457581 232.284042,419.544128 
	C217.827850,419.091522 215.496094,418.533966 210.823349,413.833618 
	C204.968536,407.944275 202.300415,400.911987 203.625916,391.829407 
M208.132599,396.384125 
	C208.764618,409.345215 217.984070,417.121155 229.815399,414.618683 
	C232.918884,413.962280 235.346375,412.620331 234.718231,408.390778 
	C218.209030,409.523102 212.990952,398.636414 210.381470,383.952515 
	C208.284821,388.594360 208.255035,392.045013 208.132599,396.384125 
M231.125427,394.553436 
	C225.860672,394.214813 222.278839,389.516632 216.681549,388.783356 
	C217.505768,395.797241 220.481979,400.785431 227.035965,402.940887 
	C233.736374,405.144470 239.583710,403.205383 244.183823,398.086884 
	C246.946426,395.012939 249.654617,391.587952 247.843521,385.894928 
	C243.420181,391.712830 238.821320,395.520813 231.125427,394.553436 
M173.643082,354.647369 
	C179.658752,350.797272 182.754776,351.194336 187.433044,356.641541 
	C189.204865,358.704590 191.006439,360.568268 193.760620,361.250519 
	C195.483475,361.677307 197.180283,361.824768 198.245270,360.161774 
	C199.213272,358.650208 198.340363,357.204041 197.340179,356.077637 
	C194.358109,352.719208 191.342224,349.384583 188.203140,346.174011 
	C186.176468,344.101166 183.560074,342.883484 180.698059,342.487640 
	C176.973785,341.972473 174.236908,343.613129 172.497559,346.892029 
	C170.767990,350.152496 170.988937,352.799316 173.643082,354.647369 
M324.922607,323.961243 
	C323.502563,319.971924 322.513672,315.752777 318.907166,312.350128 
	C314.446899,317.754028 308.638275,320.448883 302.436127,322.596527 
	C298.914398,323.816071 296.653564,326.526886 295.081573,330.254944 
	C304.628052,328.987946 313.676178,327.781921 322.726471,326.592133 
	C323.943481,326.432129 325.094147,326.261536 324.922607,323.961243 
M227.057602,344.212006 
	C226.720276,345.193756 225.353210,345.960449 226.528778,347.466766 
	C232.058167,345.835510 237.612198,344.163727 243.186050,342.560760 
	C250.659286,340.411560 251.309433,339.214111 249.043900,330.679749 
	C239.758011,331.566864 232.531601,335.783234 227.057602,344.212006 
M265.348206,532.501587 
	C265.609863,529.922791 265.871521,527.343994 266.175934,524.344055 
	C262.680176,524.990173 258.320496,523.962036 258.626434,528.508301 
	C258.872986,532.171814 258.673981,535.070557 256.716156,538.253723 
	C255.141190,540.814331 255.786957,543.848877 258.514465,545.740967 
	C261.132446,547.557129 263.906799,547.474426 266.223663,545.193298 
	C268.577362,542.875916 269.392426,540.155273 267.266083,537.166016 
	C266.407776,535.959351 265.287811,534.893311 265.348206,532.501587 
M185.937759,376.742218 
	C186.855255,374.524933 188.253052,375.436646 189.553925,376.238495 
	C193.643204,378.759033 197.172699,377.298950 200.615585,374.808868 
	C203.253418,372.901031 202.896851,371.183105 200.284073,369.147430 
	C194.521637,374.304169 187.568375,373.943695 180.503006,373.059509 
	C182.210205,381.045776 188.387909,386.683502 194.889877,386.629059 
	C198.712326,386.597076 200.593887,384.735077 201.672821,379.916718 
	C192.185745,383.248444 189.642776,382.855560 185.937759,376.742218 
M240.703125,386.745544 
	C241.184540,385.869019 242.701721,384.484406 240.458786,384.356384 
	C233.641479,383.967316 228.544907,380.928711 224.805649,375.313507 
	C224.093384,374.243896 222.839630,374.177887 221.654205,374.567261 
	C220.717148,374.875122 220.377716,375.706329 220.568893,376.541504 
	C221.704025,381.500183 223.573944,386.188995 228.299637,388.686890 
	C232.404907,390.856812 236.606567,390.484528 240.703125,386.745544 
M191.418228,342.711914 
	C192.385330,343.265961 192.801773,344.636536 194.184479,344.616638 
	C193.799942,333.941345 191.324356,330.746674 183.709351,331.060638 
	C178.735306,331.265686 176.688004,333.306885 177.041687,337.888794 
	C182.228180,337.486237 186.833145,339.069366 191.418228,342.711914 
M185.743607,361.808960 
	C185.143509,361.018311 184.533325,360.235046 183.945160,359.435608 
	C182.038223,356.843811 179.788483,355.355011 176.949020,358.005249 
	C174.249680,360.524750 175.199005,363.038757 177.501633,365.299896 
	C182.512405,370.220428 190.314240,370.604065 195.626053,366.191498 
	C191.999527,366.088715 188.848801,364.864105 185.743607,361.808960 
M295.757263,303.279816 
	C292.479248,305.340179 288.939941,307.052612 286.089966,310.151764 
	C297.170471,312.297424 306.498322,306.892700 307.589325,297.677094 
	C303.445007,298.788513 299.952576,300.928436 295.757263,303.279816 
M235.927078,329.538788 
	C238.819305,328.266022 241.728241,327.114014 244.860245,326.459625 
	C250.594955,325.261383 251.373245,323.363861 248.659363,317.606812 
	C242.037567,318.410950 237.468323,322.090210 234.460922,327.904144 
	C234.096069,328.609467 232.760742,330.305115 235.927078,329.538788 
M291.030304,283.112946 
	C291.538055,282.671478 292.139771,282.066925 291.661713,281.471954 
	C290.342896,279.830719 277.973816,276.803284 276.056274,277.465027 
	C274.696381,277.934326 274.404053,278.946930 274.382080,280.179169 
	C274.361267,281.345306 274.329102,282.492523 275.458252,283.290100 
	C278.006378,285.089966 287.780609,285.259521 291.030304,283.112946 
M190.243469,319.851135 
	C186.240311,320.730408 182.709167,322.316925 180.095093,326.413086 
	C185.338531,325.462952 189.627304,327.280487 194.202820,328.348297 
	C194.647888,325.414795 195.035355,322.860840 195.392502,320.506805 
	C193.907074,318.971313 192.415741,319.487335 190.243469,319.851135 
M276.593109,331.756683 
	C275.930084,332.388885 274.740387,332.702545 275.203400,334.027191 
	C285.732208,333.400513 289.584473,331.163544 291.485901,324.431396 
	C285.277802,323.940735 281.573944,328.451843 276.593109,331.756683 
M242.089401,372.548157 
	C242.947571,376.627563 245.132416,379.536072 249.449890,381.156342 
	C249.921509,377.499176 250.201935,374.301941 249.140717,370.678833 
	C246.798721,371.150513 244.501099,370.877350 242.089401,372.548157 
M276.679688,295.762512 
	C278.390320,293.861847 280.692108,292.491058 282.096283,289.794952 
	C280.373383,289.323303 278.858978,288.806671 277.302643,288.509766 
	C275.537140,288.172943 274.127197,288.996887 274.468903,290.817688 
	C274.806274,292.615601 272.429016,295.473877 276.679688,295.762512 
M324.398010,310.855316 
	C325.070190,311.401001 325.093536,312.872162 326.708099,312.307678 
	C327.233795,308.097992 326.622742,304.257324 322.960114,300.697693 
	C321.863831,304.455658 321.350525,307.545929 324.398010,310.855316 
M237.840134,375.322632 
	C236.145264,370.618256 233.359451,373.276123 230.603958,373.891754 
	C231.518463,377.121765 233.818176,378.080414 236.261703,378.643250 
	C238.879761,379.246307 239.215103,377.985687 237.840134,375.322632 
M213.914963,380.350464 
	C214.705032,380.780243 215.185760,381.915924 216.378937,381.449463 
	C215.872192,375.183472 215.489288,374.837372 211.009598,376.945709 
	C211.859955,377.975128 212.668732,378.954224 213.914963,380.350464 
z"/>
<path fill="#000000" opacity="1.000000" stroke="none" 
	d="
M657.345032,494.695068 
	C643.014526,495.842560 629.036011,495.186615 615.063232,495.272919 
	C613.533386,495.282349 611.991333,495.105103 611.759521,493.053345 
	C611.570679,491.381714 612.061646,490.177429 613.734863,489.481384 
	C618.133179,487.651672 618.977234,483.994507 618.957703,479.672058 
	C618.867371,459.691528 618.854492,439.710236 618.921875,419.729614 
	C618.937073,415.226685 618.150452,411.439758 613.322693,409.731354 
	C611.771606,409.182465 610.828125,408.049591 611.112854,406.277679 
	C611.451965,404.167999 613.020935,403.759796 614.815613,403.757751 
	C634.598022,403.735443 654.428223,402.278168 674.127869,404.967285 
	C681.108154,405.920197 687.841553,408.330780 692.356628,414.289154 
	C700.624207,425.199615 697.373535,439.981842 685.322449,446.884094 
	C683.327454,448.026733 681.194763,448.928955 679.333069,449.840759 
	C678.948364,450.937897 679.383606,451.516113 680.006287,451.739197 
	C687.853027,454.551208 690.899536,460.892426 692.637756,468.393860 
	C693.573120,472.430145 694.873596,476.405151 696.323608,480.290497 
	C697.266174,482.816254 698.514221,484.876282 702.256287,483.867828 
	C705.538208,482.983337 707.117310,485.638977 705.589783,488.813171 
	C704.287903,491.518707 701.781128,492.971985 699.275513,494.271973 
	C683.404724,502.506165 667.082031,495.142059 662.947693,477.860229 
	C661.981873,473.823059 661.442810,469.685181 660.542297,465.630310 
	C660.076233,463.531860 659.395935,461.450409 658.548157,459.474731 
	C657.373047,456.736115 655.376953,454.277222 652.243896,454.647583 
	C648.723022,455.063782 649.723816,458.617126 649.617798,460.785126 
	C649.292847,467.429901 649.394226,474.099182 649.456055,480.757782 
	C649.493652,484.802063 651.266357,487.833923 655.301270,489.112000 
	C658.161194,490.017914 658.950439,491.724060 657.345032,494.695068 
M658.774719,412.485901 
	C651.306702,409.807343 649.911194,410.590912 649.725769,418.442871 
	C649.549194,425.917175 650.209595,433.397491 649.637634,440.883850 
	C649.224426,446.293152 651.347595,447.846344 656.595276,446.189148 
	C658.357727,445.632507 659.955505,444.749298 661.302551,443.452515 
	C668.333679,436.683685 667.245667,418.745178 658.774719,412.485901 
z"/>
<path fill="#000000" opacity="1.000000" stroke="none" 
	d="
M740.423706,372.655823 
	C733.646606,372.750488 727.319885,372.869720 720.996582,372.770538 
	C719.256042,372.743256 717.211731,372.589508 716.881470,370.052917 
	C716.566101,367.630798 718.112549,366.985077 719.982666,366.319550 
	C723.447266,365.086578 724.650818,362.261261 724.653320,358.825653 
	C724.667847,339.003815 724.693115,319.181854 724.622192,299.360260 
	C724.608154,295.439667 723.276062,292.187775 718.977600,290.959045 
	C717.343323,290.491821 716.630371,289.185150 716.840027,287.461914 
	C717.076782,285.515472 718.559998,285.057587 720.103638,285.088593 
	C737.893127,285.445709 755.790527,283.493988 773.450623,286.592926 
	C800.126709,291.273987 810.243408,311.635101 806.797241,335.884827 
	C803.651428,358.021240 787.962097,371.384369 765.320251,372.287720 
	C757.180786,372.612488 749.024231,372.507111 740.423706,372.655823 
M776.736816,316.798737 
	C775.942749,310.849030 774.910828,304.970154 771.597473,299.782501 
	C768.615295,295.113617 764.391602,292.650970 758.824463,292.276062 
	C755.034424,292.020813 753.312927,293.428314 753.326355,297.350464 
	C753.398071,318.291016 753.308716,339.232147 753.400024,360.172546 
	C753.422119,365.239044 754.823425,366.201660 759.942627,365.529022 
	C767.959290,364.475708 773.503784,358.511200 775.600525,348.390991 
	C777.703857,338.238708 778.208923,327.997253 776.736816,316.798737 
z"/>
<path fill="#000000" opacity="1.000000" stroke="none" 
	d="
M856.734680,337.841888 
	C855.560852,328.704285 856.188293,320.126923 858.981079,311.810272 
	C864.563416,295.186676 878.927429,284.506317 896.499329,283.707275 
	C907.352051,283.213776 917.825928,284.505920 927.026550,290.874573 
	C941.848083,301.134033 948.496155,320.958008 944.096069,340.660522 
	C938.542297,365.529266 917.969971,377.042603 893.286743,373.823181 
	C872.409119,371.100067 860.991455,358.296661 856.734680,337.841888 
M886.311646,332.332397 
	C886.687256,337.473755 886.793640,342.653351 887.516846,347.745361 
	C888.193237,352.507538 889.427979,357.217773 891.704834,361.532410 
	C893.611511,365.145477 896.473450,367.558350 900.752502,367.600037 
	C905.281982,367.644135 908.250854,365.073669 910.057922,361.208069 
	C911.176086,358.816162 911.977112,356.239349 912.626831,353.671234 
	C915.899658,340.734772 915.355530,327.564545 914.348816,314.468811 
	C913.857605,308.078644 913.066650,301.489990 909.385803,295.846436 
	C904.481506,288.326965 895.562439,288.734894 891.367065,296.648987 
	C889.881042,299.452271 888.869873,302.420776 888.273804,305.561371 
	C886.653809,314.096832 886.003357,322.694916 886.311646,332.332397 
z"/>
<path fill="#000000" opacity="1.000000" stroke="none" 
	d="
M826.049988,434.543793 
	C822.619019,437.301117 820.540588,436.661926 819.353882,432.646515 
	C817.884277,427.674011 815.799377,422.911774 812.568237,418.812256 
	C807.373413,412.221313 800.635193,408.794647 792.113708,410.032318 
	C787.576782,410.691345 784.370117,413.524902 783.606567,418.059570 
	C782.886597,422.334991 784.995483,425.878754 788.427917,428.393677 
	C792.352417,431.269135 796.983337,432.829041 801.382874,434.798828 
	C807.615051,437.589081 813.862854,440.327820 819.629883,444.044525 
	C828.965881,450.061249 832.757019,458.820496 832.027771,469.608032 
	C831.230286,481.404663 825.008850,489.578979 814.141357,493.890228 
	C801.588928,498.869843 788.806519,498.725342 776.035767,494.436707 
	C772.137085,493.127441 768.519714,491.486176 764.385437,494.823486 
	C761.742981,496.956573 758.870422,494.946136 758.824219,491.345215 
	C758.700256,481.685364 758.772522,472.022980 758.773315,462.361603 
	C758.773499,460.160614 759.337952,458.392975 761.967712,458.150452 
	C764.511230,457.915863 765.563232,459.516113 766.166809,461.569397 
	C768.347351,468.987274 771.242371,476.015167 776.649536,481.763580 
	C782.089783,487.547241 788.523376,490.697052 796.674622,489.902710 
	C801.259094,489.455963 804.841370,487.445801 806.289062,483.136292 
	C807.732178,478.840607 807.081726,474.537170 803.652954,471.091156 
	C799.923340,467.342743 795.127197,465.358185 790.465820,463.138458 
	C785.058167,460.563385 779.525330,458.194946 774.333679,455.233948 
	C762.356262,448.402893 757.315674,437.735504 759.704895,425.179108 
	C761.975342,413.246857 771.522095,404.984467 784.712769,402.617065 
	C794.732849,400.818634 804.261658,402.175201 813.653259,405.459137 
	C816.227966,406.359436 818.335754,406.774872 820.405090,404.480652 
	C821.597046,403.159149 823.342102,402.879730 825.016541,403.665710 
	C826.751160,404.480011 826.370178,406.199707 826.366760,407.629974 
	C826.345642,416.456451 826.258240,425.282715 826.049988,434.543793 
z"/>
<path fill="#000000" opacity="1.000000" stroke="none" 
	d="
M518.416260,407.442352 
	C518.222778,404.356689 519.924133,403.627228 522.186523,403.681702 
	C535.161987,403.994202 548.137695,402.487091 561.111938,403.694641 
	C562.734924,403.845703 564.590210,403.600983 565.152222,405.771118 
	C565.712646,407.935455 564.723999,409.285767 562.754761,410.049438 
	C558.382690,411.745026 557.085938,415.054352 557.131958,419.550476 
	C557.298889,435.867798 556.992615,452.192871 557.350525,468.504364 
	C557.634766,481.457306 568.090759,488.645813 580.027283,484.708557 
	C586.721436,482.500519 590.124084,477.474213 590.568909,470.910889 
	C591.684021,454.457123 591.254822,437.964386 590.725220,421.491669 
	C590.547241,415.955811 587.685242,412.110260 582.254944,410.387238 
	C580.172241,409.726379 577.828918,409.163696 578.405457,406.166290 
	C578.995056,403.101013 581.584595,403.718750 583.630127,403.695312 
	C590.789490,403.613190 597.950195,403.645294 605.110413,403.649658 
	C607.164612,403.650879 609.269226,403.694519 609.708435,406.366638 
	C610.078735,408.619629 608.623718,409.601440 606.811890,410.420746 
	C602.420471,412.406586 600.250977,415.944763 600.178955,420.700531 
	C599.955017,435.493378 599.705994,450.286743 599.631165,465.080750 
	C599.530762,484.931641 587.408142,497.195129 567.544983,497.370728 
	C562.546753,497.414917 557.583069,497.350433 552.657166,496.223602 
	C536.286621,492.478943 526.917908,481.071533 526.717468,464.183990 
	C526.575256,452.195984 526.494141,440.201935 526.716858,428.216736 
	C526.866943,420.139740 527.404785,412.149078 518.416260,407.442352 
z"/>
<path fill="#000000" opacity="1.000000" stroke="none" 
	d="
M538.426025,333.836945 
	C546.021790,352.849579 536.524292,369.555939 516.552124,373.312439 
	C505.772766,375.339874 495.335754,374.200684 485.084473,370.726166 
	C482.176727,369.740631 479.696716,369.232056 477.498138,372.030762 
	C476.471130,373.338104 474.862579,373.446991 473.362457,372.894897 
	C471.571167,372.235657 471.712738,370.559998 471.707306,369.083557 
	C471.673035,359.753815 471.676025,350.423920 471.666321,341.094086 
	C471.664124,338.995117 471.749451,336.985779 474.614014,336.844299 
	C477.321228,336.710632 477.891998,338.615631 478.352661,340.648254 
	C480.211334,348.848724 484.198792,355.901093 490.377441,361.533386 
	C495.520966,366.222137 501.533234,368.587158 508.736298,366.983032 
	C513.254211,365.976868 516.269592,363.680908 517.299377,359.047058 
	C518.384033,354.166443 516.217407,350.558105 512.588745,347.761353 
	C507.526459,343.859650 501.532410,341.635498 495.721283,339.165192 
	C491.231964,337.256744 487.113831,334.773712 483.179535,331.980652 
	C475.194519,326.311859 471.449554,318.346161 472.154846,308.719238 
	C472.944977,297.935028 478.787415,290.434967 488.886688,286.499298 
	C499.398956,282.402710 510.042542,282.674835 520.695740,286.045410 
	C524.293701,287.183777 527.656799,288.910858 531.265686,285.310486 
	C532.877197,283.702789 535.696472,284.642731 535.770447,287.704773 
	C535.975586,296.195404 535.980286,304.691467 535.997559,313.185547 
	C536.000916,314.841492 535.242310,316.025909 533.335022,316.166992 
	C531.135132,316.329681 529.864380,315.346954 529.369934,313.253052 
	C527.923950,307.128998 525.113586,301.738861 520.848450,297.086945 
	C515.618835,291.383148 507.365936,289.112152 500.906708,291.688263 
	C494.496155,294.244904 492.872559,301.732300 497.635864,306.822449 
	C499.614258,308.936615 502.167175,310.163757 504.723846,311.405396 
	C512.358521,315.113190 520.313232,318.154388 527.619446,322.550537 
	C532.148926,325.275970 535.905029,328.683533 538.426025,333.836945 
z"/>
<path fill="#000000" opacity="1.000000" stroke="none" 
	d="
M664.196655,320.000000 
	C664.229309,328.660370 664.053711,336.828186 664.344238,344.979401 
	C664.795349,357.632172 672.514954,364.322784 684.404419,362.731262 
	C691.701416,361.754486 697.283691,355.061829 697.534729,345.601837 
	C697.905701,331.622314 697.854187,317.620483 697.526428,303.638855 
	C697.389954,297.815308 694.711304,293.040375 688.465942,291.283997 
	C686.442017,290.714783 684.497864,289.911591 684.926270,287.298309 
	C685.341858,284.763092 687.578369,285.104340 689.308044,285.081085 
	C696.468140,284.984772 703.630188,284.973328 710.790771,285.026276 
	C712.542725,285.039215 714.679504,284.757996 715.193054,287.256592 
	C715.692383,289.685822 713.809082,290.396240 712.121826,291.113129 
	C706.633423,293.445160 705.408081,298.215759 705.351685,303.406403 
	C705.215942,315.895782 705.248962,328.387573 705.300720,340.878021 
	C705.318848,345.237274 704.759766,349.530579 703.761230,353.721008 
	C700.661438,366.729523 691.374817,372.479980 678.921204,373.977844 
	C670.921204,374.940002 662.943481,374.314453 655.236938,371.776947 
	C641.876343,367.377838 635.096069,356.237183 635.009094,338.550018 
	C634.948486,326.226593 634.985291,313.902283 635.058838,301.578857 
	C635.086853,296.884064 634.883301,292.464783 629.359802,290.680695 
	C627.838623,290.189331 627.652344,288.776123 627.792847,287.364563 
	C627.964722,285.637573 629.291748,285.189880 630.649170,285.186127 
	C643.469177,285.150757 656.289551,285.158417 669.109375,285.228973 
	C670.409729,285.236145 671.812683,285.573883 672.126282,287.281586 
	C672.443298,289.008270 671.835510,290.275635 670.156372,290.807343 
	C665.060242,292.420959 664.033997,296.251984 664.165344,301.014618 
	C664.335266,307.171997 664.200684,313.337830 664.196655,320.000000 
z"/>
<path fill="#000000" opacity="1.000000" stroke="none" 
	d="
M580.000000,285.030212 
	C593.161621,284.982513 605.826721,285.087036 618.482971,284.801453 
	C622.920227,284.701294 624.366699,286.329346 624.307617,290.599060 
	C624.199402,298.419678 624.036072,306.252045 624.841858,314.066925 
	C625.053467,316.118622 625.295349,318.641388 622.232727,319.170013 
	C619.093750,319.711761 618.364258,317.638092 617.708069,315.154480 
	C615.594971,307.156891 612.613342,299.617859 605.615662,294.448303 
	C603.844604,293.139893 601.932983,291.654785 599.703735,292.569946 
	C597.328796,293.544891 598.184937,296.038971 598.180603,297.910492 
	C598.135376,317.569824 598.232971,337.229645 598.143433,356.888672 
	C598.121216,361.764954 599.378479,365.279175 604.648743,366.606232 
	C607.479370,367.319031 607.398987,367.638336 606.591125,372.392395 
	C592.262268,372.857147 577.838318,373.268707 563.398010,372.428375 
	C561.587280,372.322998 560.051880,371.874756 559.954529,369.674103 
	C559.873596,367.843231 560.905029,366.956635 562.616882,366.676117 
	C567.710083,365.841553 569.516846,362.229553 569.539429,357.702698 
	C569.641907,337.211761 569.556946,316.719910 569.581543,296.228485 
	C569.586243,292.298737 567.651428,291.598785 564.449219,292.966034 
	C560.150513,294.801453 557.083252,298.033020 554.679810,301.951141 
	C551.943665,306.411743 550.427612,311.340393 549.292480,316.393280 
	C548.796265,318.602173 547.505188,319.422241 545.347595,319.234375 
	C543.139221,319.042114 542.704895,317.559021 542.703857,315.735138 
	C542.698730,306.573914 542.775391,297.420868 543.516418,288.274689 
	C543.810608,284.643250 546.257324,285.049652 548.511658,285.039124 
	C558.840881,284.990936 569.170532,285.024628 580.000000,285.030212 
z"/>
<path fill="#000000" opacity="1.000000" stroke="none" 
	d="
M716.975830,403.311188 
	C727.702576,403.432312 738.005554,403.521576 748.307007,403.701660 
	C750.350708,403.737366 752.839111,403.153687 753.505188,406.232483 
	C754.101624,408.989532 751.953125,409.612732 750.216187,410.476379 
	C746.616394,412.266327 745.398743,415.343323 745.395935,419.095978 
	C745.380615,439.740967 745.387451,460.385986 745.368103,481.030975 
	C745.364624,484.742889 746.903503,487.453979 750.365540,488.908813 
	C752.210022,489.683929 753.543884,490.679291 753.219727,492.962341 
	C752.842529,495.619812 750.777527,495.323914 749.011169,495.327637 
	C736.357910,495.354156 723.704346,495.347107 711.051208,495.287292 
	C709.319092,495.279114 707.210327,495.668243 706.811340,492.978516 
	C706.458435,490.599731 708.011780,489.730621 709.802795,489.051697 
	C713.666870,487.586945 714.772888,484.634094 714.757935,480.744171 
	C714.679260,460.265869 714.672180,439.786987 714.734863,419.308624 
	C714.748535,414.852203 713.322449,411.509705 708.939758,409.869263 
	C707.116943,409.186981 706.330505,407.924744 706.698059,405.981537 
	C707.057617,404.080841 708.503601,403.803802 710.072205,403.706482 
	C712.231812,403.572479 714.391724,403.442749 716.975830,403.311188 
z"/>
<path fill="#000000" opacity="1.000000" stroke="none" 
	d="
M481.027496,495.346649 
	C478.036835,495.325592 475.540436,495.338318 473.046173,495.271027 
	C471.695343,495.234619 470.282959,495.095062 469.931763,493.411896 
	C469.606018,491.850769 469.699310,490.330933 471.503784,489.694702 
	C477.414520,487.610596 477.876648,482.906250 477.837830,477.570099 
	C477.699860,458.603210 477.731934,439.634277 477.838715,420.666931 
	C477.866211,415.779755 476.906067,411.745605 471.792694,409.842041 
	C469.906860,409.139984 469.438446,407.635284 469.856171,405.791016 
	C470.292419,403.864838 471.883362,403.768555 473.382904,403.762878 
	C486.514587,403.713196 499.646423,403.696228 512.778198,403.689575 
	C514.526428,403.688690 516.098022,403.991119 516.520508,406.147461 
	C516.930420,408.239594 515.790588,409.260712 514.094788,409.904114 
	C509.477631,411.656006 508.238708,415.214966 508.259735,419.823456 
	C508.352295,440.122040 508.337463,460.421417 508.262451,480.720154 
	C508.247986,484.630676 509.456085,487.535400 513.275330,488.995972 
	C515.100159,489.693848 516.569153,490.640656 516.183228,492.974060 
	C515.693298,495.936554 513.325378,495.305298 511.471954,495.317444 
	C501.489197,495.382965 491.505829,495.347656 481.027496,495.346649 
z"/>
<path fill="#000000" opacity="1.000000" stroke="none" 
	d="
M812.514771,285.152466 
	C824.945740,285.064575 836.932251,284.992096 848.918152,285.044464 
	C850.918945,285.053192 853.558899,284.389374 854.190857,287.434814 
	C854.734802,290.055725 852.711670,290.717560 850.824402,291.582031 
	C847.554260,293.079956 846.394897,296.023499 846.387146,299.359283 
	C846.341553,319.003937 846.345093,338.648895 846.415710,358.293457 
	C846.429871,362.237335 847.819885,365.516907 852.087830,366.665100 
	C854.235718,367.242950 854.383423,368.832092 854.205322,370.573700 
	C853.997131,372.608917 852.394958,372.740265 850.867798,372.747101 
	C839.062195,372.799866 827.255798,372.889099 815.451233,372.784119 
	C813.330261,372.765228 810.318665,373.614075 809.490967,370.573883 
	C808.642029,367.455597 811.434570,366.951691 813.539856,365.971558 
	C817.157715,364.287323 817.502197,360.819397 817.510986,357.468536 
	C817.560181,338.514465 817.523438,319.560059 817.463562,300.605927 
	C817.450867,296.583435 816.344177,293.195953 812.293274,291.162537 
	C809.131348,289.575409 807.982117,287.347107 812.514771,285.152466 
z"/>
<path fill="#000000" opacity="1.000000" stroke="none" 
	d="
M329.198059,374.107422 
	C329.622284,376.176971 332.150055,377.876587 329.438568,379.641541 
	C328.295532,380.385559 327.159943,380.005493 326.243225,379.159668 
	C324.746002,377.778168 324.193542,375.988525 325.165710,374.192017 
	C326.108856,372.449158 327.558105,371.871918 329.198059,374.107422 
z"/>
</svg>