<svg version="1.1" id="Layer_1" xmlns="http://www.w3.org/2000/svg" xmlns:xlink="http://www.w3.org/1999/xlink" x="0px" y="0px"
	 width="100%" viewBox="0 0 1024 544" enable-background="new 0 0 1024 544" xml:space="preserve">
<path fill="#000000" opacity="1.000000" stroke="none" 
	d="
M299.665070,280.000458 
	C302.184784,192.565582 340.209473,126.677017 416.836792,84.594765 
	C447.748993,67.618370 481.608734,60.182877 516.967529,61.679947 
	C604.247803,65.375351 666.652283,107.556450 705.406738,185.227188 
	C723.004089,220.495605 729.086975,258.338440 725.992004,297.339661 
	C722.034180,347.214691 703.248901,391.140076 669.555908,428.412994 
	C638.809021,462.426758 601.262207,485.182404 556.328918,494.620331 
	C502.844452,505.854370 452.143616,497.525391 405.595367,468.749176 
	C349.763428,434.233826 315.870453,384.062561 303.061157,319.729218 
	C300.490631,306.819122 299.311401,293.705017 299.665070,280.000458 
M625.926941,458.401642 
	C637.383362,450.575989 647.994568,441.724274 657.645630,431.768158 
	C707.386902,380.454620 728.034485,319.001282 718.155640,248.500092 
	C710.009460,190.363831 681.924316,142.666855 634.391052,107.601387 
	C585.973206,71.883392 531.609253,59.976013 472.650146,71.628342 
	C419.979645,82.037842 378.049255,110.030128 346.581818,153.325470 
	C324.321930,183.952316 311.152405,218.292648 306.999756,256.075409 
	C305.003906,274.234406 304.992798,292.368805 307.624817,310.349609 
	C312.014648,340.339386 321.912750,368.539825 338.607788,393.971252 
	C379.392365,456.098114 435.987549,490.980530 511.304871,492.802124 
	C552.933960,493.808960 590.740417,481.600555 625.926941,458.401642 
z"/>
<path fill="#000000" opacity="1.000000" stroke="none" 
	d="
M450.479126,195.552338 
	C461.798706,179.257996 476.856079,169.433945 496.169373,166.409317 
	C499.180389,165.937744 500.864288,164.634247 501.661377,161.629700 
	C504.009033,152.780106 506.599640,143.996994 510.495392,135.668701 
	C511.117126,134.339584 511.397156,132.799026 512.695862,131.848755 
	C514.578552,131.793304 514.665405,133.428925 515.154114,134.537018 
	C518.989502,143.232590 522.217346,152.154617 524.322021,161.427521 
	C525.063660,164.695282 526.751587,166.162460 529.993591,166.623489 
	C541.648315,168.280884 552.796143,171.442642 562.544128,178.403931 
	C564.111084,179.522919 565.967529,179.600266 567.734497,180.039169 
	C581.388184,183.430893 587.381104,194.802292 582.532349,208.034698 
	C580.342651,214.010620 584.132080,218.996918 585.757629,224.150375 
	C587.346252,229.186935 588.610535,233.994507 587.968628,239.246338 
	C587.829285,240.386520 587.475220,241.816528 587.976013,242.668808 
	C591.926697,249.391968 591.758179,257.671051 596.792114,264.109772 
	C602.469666,271.371735 601.397705,274.894989 593.484253,279.574738 
	C592.278076,280.288025 590.703674,281.213562 591.355774,282.521973 
	C593.739929,287.306061 590.071167,291.868164 591.153320,296.551727 
	C591.327148,297.304047 591.267944,298.486877 590.800476,298.951416 
	C586.883484,302.843628 587.531128,307.396332 587.928894,312.344757 
	C588.390625,318.088531 582.951111,322.829926 576.484741,323.313354 
	C571.312134,323.700073 566.189331,323.252869 561.097290,322.176147 
	C552.716736,320.403992 547.397766,326.415375 549.921997,334.692688 
	C551.781616,340.790710 557.491577,345.209442 564.611755,345.651489 
	C569.871582,345.978058 574.717896,347.306763 579.315674,349.894958 
	C581.914429,351.357880 584.706116,352.531982 587.510193,353.567200 
	C598.678284,357.690430 609.585999,362.189423 616.626648,371.996948 
	C618.581055,372.224884 619.263855,371.199646 619.947144,370.282410 
	C643.122192,339.171600 653.938782,304.492645 648.823792,265.720703 
	C642.529114,218.007004 617.567566,182.626740 575.866333,159.050171 
	C561.833069,151.116165 546.534180,146.444656 530.526978,144.328217 
	C526.981995,143.859497 524.955872,142.483871 525.388855,138.402084 
	C529.253357,137.230194 533.010193,138.485565 536.643616,139.152344 
	C596.803223,150.192612 643.669128,197.648300 654.104797,257.921631 
	C666.004761,326.651703 626.499451,396.883209 561.906128,421.829987 
	C507.789886,442.730377 443.525574,425.427795 406.663940,380.572174 
	C388.567230,358.550964 376.179657,333.903229 371.990723,305.819305 
	C365.664886,263.408569 375.539337,224.756409 402.470673,191.041214 
	C426.653320,160.767029 458.087982,143.016983 496.624664,138.080612 
	C497.931915,137.913162 499.270966,137.605179 500.752441,138.637344 
	C501.254089,142.164902 499.664368,143.812515 495.985077,144.290863 
	C439.468201,151.638824 390.319122,197.381042 379.488098,252.662598 
	C379.112030,254.582138 378.990112,256.551483 378.662476,259.203735 
	C391.215271,251.073776 402.645905,255.297211 413.971985,260.983765 
	C419.489441,263.753967 425.064545,266.329681 431.268402,267.235168 
	C440.277191,268.550049 443.839691,265.084442 444.435272,256.066101 
	C444.812164,250.358704 443.488159,245.320038 441.995361,240.006973 
	C437.502808,224.017883 441.546661,209.454727 450.479126,195.552338 
M469.055664,345.954712 
	C461.866241,348.122864 454.487885,346.822296 447.197937,347.150146 
	C436.503876,347.631104 428.443298,352.502136 423.394104,361.945709 
	C417.090546,373.735413 419.696899,386.535797 429.900665,394.795746 
	C442.445923,404.951080 456.292877,412.752197 471.659241,417.799438 
	C473.255463,418.323730 474.854675,419.004913 476.521973,418.579498 
	C484.623444,416.512177 492.095856,413.079437 499.302155,408.205109 
	C497.408112,405.244385 496.588257,402.355347 495.919464,399.243530 
	C495.096863,395.415802 494.195953,390.807861 488.366364,390.272186 
	C484.916962,389.955200 482.270599,387.266815 483.879883,383.498108 
	C486.476257,377.417694 485.547211,369.651764 492.830811,365.634033 
	C490.621216,365.088257 488.992584,364.980804 487.362152,364.926971 
	C481.670990,364.739044 480.046661,363.199066 479.723877,357.430908 
	C479.594025,355.109894 479.671967,352.802704 480.256714,350.492432 
	C481.278687,346.454956 483.337341,344.923431 487.542084,346.438080 
	C490.896118,347.646301 494.214966,349.458282 498.358215,348.665009 
	C498.358215,328.578674 498.358215,308.605774 498.358215,288.130035 
	C496.284027,290.317993 495.384247,292.459747 494.694061,294.670135 
	C492.789856,300.768372 492.588745,307.107544 492.300873,313.411743 
	C491.578918,329.222443 483.672577,340.630035 469.055664,345.954712 
M534.197937,310.267212 
	C532.930725,308.532623 529.724243,307.014160 531.890503,304.607178 
	C533.934326,302.336182 535.578369,305.314148 537.256409,306.411591 
	C547.809021,313.312958 559.530701,316.868011 571.979736,317.704224 
	C580.960632,318.307495 583.412415,314.722473 581.034424,306.079773 
	C580.549133,304.315826 579.671936,303.133484 578.211731,302.198303 
	C577.172485,301.532776 576.414978,300.579254 576.730713,299.283752 
	C577.151550,297.557220 578.662292,297.803131 579.977661,297.689087 
	C581.497742,297.557190 583.404602,298.403046 584.186340,296.297485 
	C584.090759,295.194061 583.411743,294.458527 582.599060,294.585266 
	C580.651062,294.889038 578.765564,295.573151 576.825378,295.953186 
	C574.741028,296.361420 572.046814,297.262085 571.222900,294.529419 
	C570.445679,291.951630 573.192749,291.528473 574.967346,290.780518 
	C578.436584,289.318237 582.189697,288.496887 585.531555,286.339844 
	C585.049072,284.418854 584.617126,282.699219 584.165527,280.901184 
	C581.094849,281.380859 578.552063,281.027527 577.052490,278.222534 
	C576.388611,276.980652 576.243408,275.669373 577.067627,274.438019 
	C577.588196,273.660278 578.630249,273.274963 579.245239,273.802185 
	C582.847961,276.890533 586.517761,273.599640 590.193359,273.907990 
	C594.031677,274.230011 594.876038,271.649506 592.612976,268.390320 
	C591.283997,266.476318 589.841187,264.637909 588.579773,262.681549 
	C587.411621,260.869598 586.127258,260.380707 583.985413,261.174469 
	C567.775818,267.181702 550.927246,268.224823 533.854431,267.426483 
	C527.695374,267.138458 527.345093,267.482117 527.342651,273.669556 
	C527.333435,296.982727 527.327515,320.295929 527.363159,343.609039 
	C527.365845,345.377594 526.870483,347.271637 528.280273,349.147766 
	C532.031311,349.018829 535.555176,347.506653 539.151733,346.354584 
	C540.978577,345.769440 542.949341,345.213837 544.224915,346.944000 
	C547.449890,351.317932 547.369873,356.237457 545.884460,361.209045 
	C544.584351,365.560303 540.879944,364.779175 537.615479,364.959106 
	C536.178894,365.038300 534.676086,364.301971 532.780273,365.551819 
	C536.540405,369.519806 539.021484,374.412872 543.838928,378.032471 
	C551.392029,370.232727 557.953491,362.195312 561.253357,351.828888 
	C544.866333,345.820648 539.310913,334.339233 547.343262,318.473907 
	C543.103149,316.021820 538.458984,314.087646 534.197937,310.267212 
M508.077148,160.502777 
	C506.345490,167.105621 504.424469,173.753632 504.410431,180.582932 
	C504.297913,235.394836 504.356873,290.207092 504.399902,345.019226 
	C504.401489,347.045898 503.785675,349.854126 507.228821,349.683197 
	C510.243866,349.533539 509.603516,346.962097 509.642700,345.088135 
	C509.997925,328.103516 510.367615,311.118744 510.606537,294.132233 
	C511.046906,262.822571 511.386658,231.511475 511.831055,200.201859 
	C511.856323,198.421829 511.133789,196.215576 513.340271,194.931854 
	C514.673157,196.341171 514.282349,197.914749 514.318604,199.361435 
	C514.552002,208.683197 514.796570,218.005386 514.924072,227.328979 
	C515.420654,263.633636 515.866089,299.938995 516.360779,336.243683 
	C516.401550,339.236572 516.568787,342.236511 516.869019,345.213837 
	C517.053955,347.048370 516.552795,349.836090 519.575928,349.583588 
	C522.535706,349.336273 521.659302,346.592987 521.660645,344.783722 
	C521.701721,289.638184 521.832031,234.491913 521.568604,179.347595 
	C521.513794,167.872391 517.340820,157.110550 512.965149,145.118256 
	C511.106140,150.891113 509.686218,155.300446 508.077148,160.502777 
M406.359467,316.751801 
	C399.889099,320.453430 395.245026,325.793060 392.738983,332.776917 
	C391.412262,336.474365 389.475861,340.355194 390.840851,344.368073 
	C392.871399,350.337738 396.284088,355.620117 400.191650,361.324066 
	C401.103180,358.981659 401.781281,357.328247 402.393829,355.650940 
	C407.548065,341.537354 421.021271,334.148071 435.854828,337.250031 
	C442.364075,338.611206 448.799469,340.279236 455.415375,341.193695 
	C469.025665,343.074829 481.587769,334.891632 484.856140,321.525452 
	C486.200989,316.025513 486.585388,310.377411 486.722382,304.703217 
	C486.934387,295.924591 489.443878,287.905670 495.845490,281.612701 
	C499.785706,277.739319 498.904144,273.509094 498.094391,268.531250 
	C489.674500,273.086212 484.905731,279.434753 483.300781,288.221741 
	C481.925507,295.751099 482.156219,303.465607 480.423737,310.959778 
	C477.416321,323.968872 468.854492,331.779175 455.725586,333.557404 
	C451.160828,334.175659 446.735626,333.652679 442.373291,332.652344 
	C428.875305,329.556915 415.639221,327.743469 404.225952,338.370178 
	C404.105316,338.482513 403.960754,338.573730 403.816193,338.654999 
	C402.893829,339.173615 401.897980,339.443787 401.015442,338.722870 
	C399.945648,337.848907 399.877563,336.600677 400.647949,335.586060 
	C401.639648,334.279846 402.771332,333.025238 404.042664,331.995178 
	C410.791412,326.526947 418.851685,324.722565 427.235321,323.779083 
	C435.207855,322.881805 443.035126,321.370361 450.161346,317.401581 
	C457.743500,313.178925 461.357300,307.553986 461.704742,299.557373 
	C453.126404,306.441925 443.454071,310.758606 432.455658,312.444427 
	C423.977722,313.743896 414.991791,311.877441 406.359467,316.751801 
M508.988708,381.446411 
	C510.450592,381.125427 511.912811,380.806122 513.374268,380.483093 
	C515.422913,380.030273 517.684509,379.716888 518.256104,382.338348 
	C518.908508,385.330566 516.418579,385.770782 514.245178,386.240479 
	C510.675690,387.011841 507.073181,387.666901 503.557709,388.636169 
	C501.818787,389.115662 498.921722,389.179871 499.684479,392.070862 
	C500.324188,394.495514 502.624481,393.529938 504.371094,393.187073 
	C507.142883,392.642853 509.901886,392.032684 512.676697,391.505188 
	C514.954834,391.072113 517.730408,390.203888 518.317688,393.532867 
	C518.846375,396.529755 516.072083,396.724091 514.000183,397.214874 
	C510.928711,397.942444 507.839569,398.595856 504.769257,399.328156 
	C503.581848,399.611389 502.542542,400.121063 502.873566,402.098511 
	C505.091431,403.497345 507.769501,403.055878 510.351074,402.909302 
	C514.351807,402.682251 518.442322,403.218140 520.930237,406.315460 
	C526.799866,413.622925 536.519287,414.322205 543.252502,420.015900 
	C543.771240,420.454590 544.884033,420.519836 545.610474,420.332214 
	C551.668884,418.767090 557.784119,417.321106 563.200439,414.141418 
	C563.039917,413.461517 563.060242,413.072876 562.878540,412.845673 
	C551.030090,398.028107 539.181946,383.210175 527.282166,368.433807 
	C525.663696,366.424103 523.468323,365.218353 520.809143,365.104095 
	C514.423035,364.829742 508.190796,365.750671 502.145477,367.776154 
	C500.346680,368.378784 498.284637,369.107056 499.039337,372.173126 
	C504.158783,372.051117 508.871582,370.441223 513.675354,369.434875 
	C515.814758,368.986694 517.922058,368.809692 518.636536,371.263824 
	C519.452942,374.067993 516.993713,374.519135 515.098816,375.002075 
	C510.590973,376.150940 506.045624,377.152100 501.521667,378.238800 
	C499.118988,378.815979 497.700745,380.015350 498.633728,382.776642 
	C502.104095,383.300171 505.100861,382.107300 508.988708,381.446411 
M492.458221,188.091141 
	C486.663818,191.375519 480.875549,194.673141 474.248260,197.362381 
	C473.514862,193.670471 475.662537,192.352844 477.289642,190.879639 
	C482.528320,186.136490 489.062531,183.372711 494.875458,179.503448 
	C497.237762,177.931030 499.646515,176.272446 498.013916,172.646484 
	C497.257111,172.586395 496.586548,172.390030 495.974701,172.505325 
	C476.814209,176.116455 462.289398,186.359283 452.820160,203.385284 
	C446.351349,215.016403 444.061737,227.387924 448.214539,240.415115 
	C448.811981,242.289368 449.029938,245.110672 452.335876,244.064911 
	C454.989716,243.225403 455.719849,241.644821 455.111877,238.723358 
	C452.616089,226.730713 454.276428,215.233841 460.164795,204.445801 
	C462.250092,200.625305 465.347809,197.875763 470.917816,195.693298 
	C463.324036,210.403366 456.398651,224.065079 461.779846,239.987656 
	C467.290070,239.093491 467.484314,239.110107 467.780273,235.651718 
	C469.198486,219.077881 477.872833,207.563568 492.247040,199.828552 
	C499.359711,196.001099 500.198578,193.490234 497.728912,184.868118 
	C496.134888,185.841110 494.601044,186.777390 492.458221,188.091141 
M455.936859,296.464294 
	C459.017792,294.068176 461.495087,291.135925 463.059021,287.577545 
	C466.618317,279.479065 467.850647,270.293365 475.574860,263.732513 
	C465.244965,262.420288 465.244934,262.420288 461.727417,270.367188 
	C454.152069,287.481598 439.200500,294.170013 421.592285,288.241821 
	C419.379333,287.496796 416.716370,287.006958 416.277954,283.899170 
	C418.748230,281.805420 421.192505,282.722412 423.560974,283.282532 
	C429.291748,284.637848 435.002686,285.476440 440.806763,283.624634 
	C448.923584,281.035004 456.824738,271.322601 456.260864,264.385864 
	C453.603577,264.701355 450.920868,264.957062 449.060822,267.196350 
	C440.968353,276.938873 430.335480,279.058624 418.417847,277.650146 
	C407.863586,276.402832 397.808594,277.839233 388.739929,283.831848 
	C386.643494,285.217163 384.593964,286.675232 382.888855,289.763184 
	C386.177612,288.548706 388.678131,288.698608 391.165314,288.625366 
	C402.974457,288.277557 413.117218,293.397430 423.332031,298.338104 
	C434.248596,303.618103 445.014923,304.551147 455.936859,296.464294 
M574.249451,386.846863 
	C575.010254,383.954773 575.930847,381.093079 576.488037,378.162292 
	C577.075439,375.072479 577.450806,371.925934 577.667480,368.786865 
	C577.859863,365.999542 577.707886,363.188446 577.707886,360.387848 
	C575.699158,373.481506 568.789062,384.009430 561.088318,394.154297 
	C559.721558,395.954895 558.410889,397.792267 560.564392,399.835602 
	C564.266602,403.348328 565.331665,409.569763 571.485413,410.519958 
	C572.041138,410.605804 572.718384,410.081238 573.303711,409.772797 
	C587.404114,402.342468 599.953003,392.892273 610.802368,381.179596 
	C612.961731,378.848450 612.694336,376.904663 610.892151,374.614868 
	C604.186768,366.095520 594.826111,362.216003 584.212585,358.849884 
	C584.212585,361.427185 584.229553,363.380524 584.209656,365.333466 
	C584.115051,374.605438 581.704407,383.389465 578.557251,392.015076 
	C577.962402,393.645294 577.157959,395.289154 575.070618,394.798065 
	C572.797546,394.263245 572.522888,392.428589 573.009766,390.444916 
	C573.246582,389.480103 573.641235,388.554016 574.249451,386.846863 
M564.383545,243.078079 
	C561.966125,242.702972 559.187561,244.137085 556.638000,241.483826 
	C565.510620,238.758682 574.853577,238.201233 582.334595,231.817307 
	C579.761169,229.816757 578.408813,231.013229 577.085388,231.428207 
	C564.154602,235.482697 550.883667,237.606888 537.387573,238.246933 
	C527.479248,238.716827 527.241089,238.794067 527.387878,248.767731 
	C527.390320,248.934097 527.396912,249.101776 527.380920,249.266830 
	C527.071594,252.457748 528.485535,253.682312 531.707886,253.776093 
	C534.621033,253.860855 537.875732,252.673584 541.478882,255.778885 
	C537.297546,256.316162 534.085388,256.759369 530.864868,257.130280 
	C529.181702,257.324097 527.338806,257.234528 527.547791,259.746857 
	C527.731262,261.952850 529.466553,261.700958 530.918945,261.743500 
	C545.412781,262.168060 559.882629,262.071716 574.060547,258.500549 
	C577.258911,257.694916 580.306213,256.270050 583.395142,255.058853 
	C584.719849,254.539398 585.795105,253.676300 585.133179,252.020889 
	C584.398804,250.184357 582.994019,250.220535 581.414307,250.860657 
	C580.181946,251.360046 578.953857,251.922363 577.669617,252.231583 
	C573.477966,253.240921 569.332397,255.039795 563.726929,253.369766 
	C569.383789,250.625626 574.070435,248.380814 578.729675,246.080383 
	C581.236877,244.842468 582.657043,243.121948 580.785278,239.804230 
	C575.773926,241.637222 570.536560,242.424286 564.383545,243.078079 
M527.401978,215.014221 
	C527.671204,217.410767 526.678345,219.970459 528.197327,222.229797 
	C542.903015,219.246216 554.818787,212.492752 561.416504,197.159378 
	C563.646790,202.899445 560.522827,206.231400 559.371582,210.741455 
	C565.459351,207.090698 567.852844,202.092377 569.485962,196.588440 
	C569.966431,194.969528 570.219543,192.974945 572.375916,193.159744 
	C574.603027,193.350601 575.037781,195.323395 575.253967,197.242340 
	C575.501404,199.438492 574.683350,202.012558 577.335632,203.483902 
	C578.912659,201.989243 578.685669,200.093262 578.543579,198.325851 
	C578.082153,192.588669 573.455383,187.538925 567.178345,185.751495 
	C562.327271,184.370117 557.528442,186.127121 553.969177,191.547546 
	C548.125122,200.447693 541.080750,207.659058 530.589294,210.820877 
	C528.906555,211.328003 527.524048,212.179749 527.401978,215.014221 
M455.127686,327.785706 
	C466.583191,326.410187 474.741150,316.835754 475.701477,303.789368 
	C476.067108,298.821808 476.503967,293.849335 477.185883,288.917419 
	C478.509888,279.341339 483.069519,271.497864 491.189758,265.447815 
	C487.701721,263.752106 485.082611,264.117401 482.486176,265.634094 
	C477.120270,268.768585 474.369720,273.810333 472.396149,279.411835 
	C470.057007,286.050842 469.417236,293.032043 468.371277,299.926025 
	C466.537201,312.014435 460.244873,320.418945 448.440857,324.363617 
	C446.575562,324.986969 444.744812,325.713806 442.377075,326.584320 
	C446.647369,327.956055 450.445801,327.886383 455.127686,327.785706 
M381.619019,319.729126 
	C382.537323,324.222290 383.604584,328.664032 386.073975,333.131805 
	C386.926544,331.240906 387.569031,329.759552 388.256805,328.299500 
	C393.702637,316.738403 402.813660,309.998718 415.359985,307.932953 
	C419.474091,307.255585 423.784180,308.091339 427.932800,306.489105 
	C404.325592,296.019684 388.920929,300.236847 381.619019,319.729126 
M527.470886,203.501450 
	C527.585327,205.618774 528.738831,205.394043 530.208618,204.804688 
	C534.412964,203.118835 538.366882,201.116272 541.559937,197.746964 
	C546.441345,192.596130 549.541687,186.037766 555.468079,181.384583 
	C551.097656,178.301926 546.897644,176.537643 542.183594,175.375198 
	C539.769226,179.303711 538.174744,183.932724 534.329590,186.275360 
	C527.780762,190.265152 526.338562,195.891434 527.470886,203.501450 
M409.247192,354.841827 
	C404.165680,366.943329 405.114014,371.650604 414.311279,378.842896 
	C413.365417,362.654968 419.974579,350.863800 434.963409,343.708252 
	C424.846802,340.389526 415.286743,344.533966 409.247192,354.841827 
M570.773132,361.389130 
	C571.059937,359.587128 571.454529,357.793732 571.599792,355.980377 
	C571.717651,354.508820 571.826172,352.818695 569.769653,352.439362 
	C567.731140,352.063232 567.228455,353.668488 566.742065,355.069519 
	C563.276367,365.051575 556.842773,373.093994 549.972229,380.854736 
	C548.779785,382.201721 547.003235,383.414429 548.814209,385.464172 
	C550.648010,387.539764 551.970459,390.117188 554.786560,391.812775 
	C562.384277,383.037811 568.413208,373.664185 570.773132,361.389130 
M560.295166,229.702011 
	C565.422363,228.385956 570.552429,227.081253 575.675171,225.748047 
	C577.631226,225.238968 579.211182,224.185013 578.557556,221.916199 
	C577.107788,216.884293 575.625488,211.825211 571.802551,207.423004 
	C564.956238,215.882080 553.920288,219.903061 550.123291,230.914902 
	C553.313721,230.984634 556.411560,230.635696 560.295166,229.702011 
M474.386200,237.260269 
	C478.135864,238.008545 480.133148,236.542587 481.266571,232.793228 
	C483.292694,226.090393 487.255188,220.636841 493.205841,216.733795 
	C499.522095,212.591019 499.676605,212.116531 498.011292,204.190384 
	C484.153168,208.398727 473.386414,223.714996 474.386200,237.260269 
M486.021637,258.214020 
	C489.002350,258.515289 492.014130,258.641296 494.955902,259.162323 
	C498.603851,259.808380 498.994019,257.591797 498.655823,255.065414 
	C498.342987,252.729004 500.586456,248.736725 495.440155,248.955368 
	C480.520233,249.589294 466.346619,253.570770 452.390289,258.635406 
	C463.291046,256.682739 474.198547,257.272736 486.021637,258.214020 
M403.050964,262.410339 
	C391.019836,258.256165 381.117065,261.317444 378.284302,270.382690 
	C384.482452,267.400024 391.045959,265.420197 397.128815,268.523590 
	C405.640228,272.865997 414.639618,270.892853 423.432434,271.979187 
	C416.876862,268.888702 410.321289,265.798218 403.050964,262.410339 
M521.894592,355.477295 
	C509.923187,356.595703 498.087891,355.503540 486.402832,352.794922 
	C484.581757,356.836456 485.111603,358.958313 489.632385,358.939392 
	C505.110199,358.874634 520.588806,358.807861 536.066040,358.905182 
	C540.755066,358.934662 541.380127,356.782074 540.095215,352.727966 
	C534.251587,353.860809 528.680481,355.710297 521.894592,355.477295 
M456.973846,248.390045 
	C454.942688,249.349106 452.595673,249.820862 450.630890,252.556046 
	C454.939362,251.448242 458.493683,250.730530 461.919464,249.617142 
	C472.697876,246.114105 484.064453,248.203690 494.970612,245.997711 
	C496.577454,245.672684 498.643311,245.930908 498.539215,243.512848 
	C498.416718,240.667084 496.056183,241.208893 494.374268,241.369400 
	C481.952057,242.554672 469.451843,243.374741 456.973846,248.390045 
M510.183350,412.498871 
	C509.675354,413.348114 509.213806,414.229553 508.650940,415.040710 
	C506.682159,417.878021 506.596313,420.684631 509.207123,423.062378 
	C511.599731,425.241425 514.396851,425.300171 516.856323,423.151520 
	C519.505066,420.837433 519.479004,418.000153 517.760681,415.085876 
	C517.092712,413.953033 516.363281,412.854309 515.737549,411.699066 
	C513.875732,408.262024 512.100098,408.244995 510.183350,412.498871 
M393.142822,294.345184 
	C390.528229,294.703705 387.867889,294.864563 385.307495,295.457275 
	C377.147736,297.346344 375.645844,300.977631 379.940887,308.790283 
	C384.939758,302.829193 390.680664,297.991455 399.455841,295.498047 
	C396.736511,294.942444 395.324615,294.653992 393.142822,294.345184 
M487.779510,232.018707 
	C487.457306,233.236267 486.455261,234.339157 487.072449,235.642670 
	C489.942047,235.642670 492.729309,235.664047 495.516083,235.634644 
	C497.199860,235.616882 498.538361,234.925079 498.555054,233.083450 
	C498.591461,229.067413 499.237976,224.992050 497.928619,220.616364 
	C493.603302,223.690796 490.216003,226.960251 487.779510,232.018707 
M538.077393,231.830124 
	C542.460449,229.705994 546.175110,226.936844 548.120728,221.031586 
	C541.119446,225.519577 532.414429,225.048508 527.507507,231.466385 
	C527.743286,232.082260 527.979126,232.698120 528.214905,233.313995 
	C531.266724,232.926910 534.318542,232.539825 538.077393,231.830124 
M379.070587,284.186005 
	C383.484222,279.649597 389.039032,276.792908 395.323090,273.812714 
	C388.458984,271.757019 383.424500,273.902588 378.838409,277.546814 
	C376.555542,279.360840 375.833618,282.018005 376.521210,284.752228 
	C376.981445,286.582611 377.917328,284.958282 379.070587,284.186005 
M500.843445,416.218903 
	C500.801239,415.895935 500.759033,415.572937 500.716827,415.249969 
	C496.190338,416.496399 492.400665,419.081390 487.604889,421.497559 
	C495.328064,423.992157 496.989899,424.114410 501.082397,422.734283 
	C500.984192,420.780731 500.884674,418.802094 500.843445,416.218903 
M534.686096,176.394135 
	C534.934509,170.203629 530.163574,174.214340 527.803711,172.241425 
	C527.144165,176.405563 526.978821,179.722824 528.000488,183.411270 
	C531.186157,181.931915 532.791443,179.481903 534.686096,176.394135 
M525.016785,422.528625 
	C528.279419,425.143066 531.331421,423.258484 535.367493,422.186981 
	C531.767456,420.523407 528.988281,419.239166 526.315491,418.004089 
	C524.833008,419.188324 525.331909,420.656128 525.016785,422.528625 
z"/>
<path fill="#000000" opacity="1.000000" stroke="none" 
	d="
M535.313232,122.898201 
	C520.358215,119.600410 521.490234,123.735748 524.100952,107.030777 
	C525.100281,100.636353 526.560974,94.314949 527.624451,87.929146 
	C527.988098,85.745567 528.803772,84.433533 531.102234,84.744576 
	C537.841064,85.656540 544.754883,86.052429 550.962646,89.109497 
	C559.134827,93.133949 562.754089,101.015762 560.703796,109.398445 
	C558.463562,118.557640 551.672302,123.807716 542.188904,123.602509 
	C540.032715,123.555847 537.883118,123.204895 535.313232,122.898201 
M540.443909,93.244324 
	C536.588135,92.047630 534.231750,92.556160 533.957397,97.469910 
	C533.700134,102.077545 532.535156,106.636597 531.731506,111.210327 
	C531.497742,112.541153 530.997681,114.193855 532.467590,114.792786 
	C536.658325,116.500420 541.064941,117.576180 545.535339,116.017906 
	C549.641357,114.586632 552.028442,111.511620 552.661621,107.181961 
	C553.766663,99.625038 550.356445,95.516106 540.443909,93.244324 
z"/>
<path fill="#000000" opacity="1.000000" stroke="none" 
	d="
M628.399536,122.495461 
	C634.478394,127.987335 637.653381,134.149200 635.624390,142.232101 
	C633.744934,149.719437 628.973267,154.362411 621.686279,156.374664 
	C613.643005,158.595764 603.732239,153.922089 599.299500,146.068710 
	C595.037720,138.518188 596.340820,129.281891 602.539734,123.102455 
	C608.541809,117.119286 617.536804,116.156517 625.596069,120.654594 
	C626.464233,121.139153 627.273132,121.729774 628.399536,122.495461 
M605.387756,133.909210 
	C603.766541,139.753433 605.846985,144.955719 610.986755,147.909790 
	C615.592529,150.556931 620.593628,149.743942 624.604858,145.695969 
	C628.889832,141.371780 629.683105,135.978882 626.745361,131.144440 
	C621.566467,122.621727 611.142578,123.648247 605.387756,133.909210 
z"/>
<path fill="#000000" opacity="1.000000" stroke="none" 
	d="
M501.701599,475.819336 
	C501.691986,466.522430 501.833466,457.702759 501.622894,448.891479 
	C501.528290,444.932281 503.052124,443.462616 506.886841,443.731171 
	C511.855499,444.079132 516.868286,443.244781 521.821777,444.161987 
	C527.119080,445.142883 530.881226,447.749725 532.549500,453.260590 
	C534.230225,458.812653 532.289551,462.981140 528.535889,466.756439 
	C527.970093,467.325531 527.366577,467.857178 526.744446,468.439880 
	C528.207275,472.702301 532.025513,475.371521 533.722229,479.654236 
	C528.883423,481.042908 525.399292,480.773712 522.752930,476.216919 
	C521.199951,473.542816 519.787415,470.228699 515.570618,470.078033 
	C511.420166,469.929718 508.694916,470.576599 509.346100,475.677948 
	C509.609711,477.743164 509.702789,480.155945 506.398102,480.336212 
	C503.422546,480.498535 501.457367,479.758179 501.701599,475.819336 
M510.283813,463.048187 
	C514.049988,463.991180 517.833740,464.267303 521.414673,462.510895 
	C523.754761,461.363098 525.549133,459.419769 525.381287,456.660828 
	C525.201660,453.707092 523.297485,451.901672 520.412109,451.153229 
	C516.999756,450.268066 513.602173,450.055084 509.912750,451.055908 
	C509.879578,454.964752 508.816589,458.695587 510.283813,463.048187 
z"/>
<path fill="#000000" opacity="1.000000" stroke="none" 
	d="
M480.380188,107.538498 
	C480.659363,108.914612 480.842072,109.899307 481.151154,110.842567 
	C482.537231,115.072266 485.536896,117.181885 489.889435,116.472565 
	C494.316925,115.751038 497.265991,113.039795 496.886566,108.256744 
	C496.375366,101.812752 495.563843,95.381493 494.584442,88.990265 
	C494.075897,85.671875 495.388580,84.514229 498.416199,84.135475 
	C501.829926,83.708427 502.120209,85.768486 502.462158,88.325630 
	C503.187256,93.748001 504.159332,99.137535 505.041626,104.538651 
	C506.616211,114.177582 501.531982,121.571281 492.229034,123.157829 
	C481.619507,124.967194 474.577057,120.507561 472.645386,110.547211 
	C471.541656,104.855888 470.679291,99.114647 469.839600,93.376663 
	C469.468018,90.837479 469.337708,88.359749 472.998657,87.829964 
	C476.356781,87.344009 477.485260,89.099968 477.931030,91.895691 
	C478.740448,96.972206 479.538849,102.050484 480.380188,107.538498 
z"/>
<path fill="#000000" opacity="1.000000" stroke="none" 
	d="
M482.372803,461.178589 
	C478.407990,473.426361 470.566772,477.602173 459.950256,473.468445 
	C452.149078,470.430908 448.194672,463.774200 449.950684,455.606445 
	C451.310211,449.283142 453.318878,443.097809 455.087952,436.865051 
	C455.719421,434.640259 456.917694,433.479828 459.509308,434.408997 
	C461.964508,435.289307 463.669647,436.134949 462.664764,439.355194 
	C460.883911,445.062042 459.339661,450.848694 457.881531,456.648499 
	C456.552887,461.933350 458.601135,465.625366 463.446747,467.209564 
	C468.193573,468.761475 472.258728,466.800507 473.966553,461.577301 
	C475.822449,455.901245 477.286377,450.090393 478.745056,444.293945 
	C479.457489,441.462891 480.704163,440.438385 483.715027,441.276459 
	C486.685242,442.103180 487.333496,443.563904 486.463409,446.387360 
	C484.996521,451.147766 483.775360,455.983917 482.372803,461.178589 
z"/>
<path fill="#000000" opacity="1.000000" stroke="none" 
	d="
M391.591736,144.769852 
	C386.756958,139.730331 386.216248,134.997025 389.662659,129.714935 
	C392.804901,124.899094 397.401062,122.059052 402.738647,120.235870 
	C405.221283,119.387863 406.779449,119.901871 407.703156,122.612968 
	C408.633606,125.343773 407.307678,126.281990 405.095062,126.830833 
	C402.090851,127.576027 399.659882,129.272583 397.452087,131.348679 
	C395.772217,132.928284 394.498474,134.852829 395.737915,137.078735 
	C397.106873,139.537262 399.447510,138.760406 401.496124,137.947601 
	C404.275818,136.844772 406.942169,135.436386 409.759888,134.453552 
	C415.248016,132.539246 419.776062,133.596848 422.472137,137.170273 
	C425.307770,140.928696 425.082672,146.727722 421.568634,151.076111 
	C417.587860,156.002029 412.459808,159.251144 406.178528,160.583084 
	C403.319153,161.189377 401.736359,160.102722 401.114197,157.305893 
	C400.454254,154.339188 402.479218,154.036682 404.548370,153.674286 
	C408.804749,152.928848 412.349152,150.875580 415.180084,147.637344 
	C416.306519,146.348831 417.234650,144.815552 416.119934,143.123047 
	C414.945190,141.339417 413.157684,141.128540 411.253021,141.885361 
	C408.319275,143.051117 405.431946,144.341293 402.466766,145.418533 
	C398.926483,146.704681 395.352661,147.130951 391.591736,144.769852 
z"/>
<path fill="#000000" opacity="1.000000" stroke="none" 
	d="
M603.103577,443.023987 
	C606.870422,449.691345 605.700378,455.250641 599.950806,459.482910 
	C595.069885,463.075806 589.609924,464.676025 583.543701,464.352600 
	C581.078674,464.221161 579.883423,463.111908 579.906250,460.636017 
	C579.929932,458.067444 581.625305,457.649902 583.628479,457.774475 
	C587.574402,458.019836 591.243896,457.205597 594.612488,455.127655 
	C596.715881,453.830200 598.549133,452.199646 597.478760,449.472351 
	C596.448242,446.846588 594.080994,447.298615 591.898804,447.710358 
	C587.981262,448.449463 584.116272,449.535248 580.062866,449.316803 
	C573.043945,448.938568 568.758179,442.142761 571.580139,435.768341 
	C574.689148,428.745514 583.802551,425.195618 590.675354,425.068848 
	C592.557434,425.034149 593.179688,426.343475 593.269714,428.060669 
	C593.376099,430.091705 593.045471,431.823090 590.592346,432.012787 
	C587.225891,432.273071 583.957397,432.833344 581.166809,434.877533 
	C579.538513,436.070282 577.832703,437.431213 578.557678,439.792023 
	C579.268066,442.105316 581.414673,441.862061 583.180115,441.708099 
	C586.319275,441.434296 589.477905,441.084259 592.548950,440.406219 
	C596.420471,439.551453 599.789612,440.251678 603.103577,443.023987 
z"/>
<path fill="#000000" opacity="1.000000" stroke="none" 
	d="
M450.186096,101.489296 
	C447.235870,102.997635 444.572113,104.305336 441.470062,105.828186 
	C444.963196,113.692009 448.300720,121.268059 451.698334,128.817062 
	C452.746490,131.145844 454.162933,133.165329 450.484070,134.798645 
	C446.963257,136.361801 445.355255,135.223160 443.992188,132.040527 
	C440.802643,124.593079 437.418091,117.229156 434.180359,109.983337 
	C430.766602,110.159973 428.472717,111.617355 426.058655,112.633980 
	C423.685547,113.633377 422.342316,112.950333 421.325378,110.694122 
	C420.313202,108.448479 421.243500,107.249298 423.174835,106.361954 
	C431.036346,102.750008 438.895203,99.132408 446.756287,95.519577 
	C447.886200,95.000290 449.089630,94.702263 449.846283,95.980682 
	C450.814514,97.616577 452.489960,99.264267 450.186096,101.489296 
z"/>
<path fill="#000000" opacity="1.000000" stroke="none" 
	d="
M427.414062,455.245819 
	C426.138702,458.118927 424.656372,459.245300 421.867493,457.469299 
	C419.615234,456.035034 418.389191,454.742371 419.982880,451.913818 
	C424.787903,443.385834 429.453156,434.777405 434.054810,426.137482 
	C435.536987,423.354645 437.154999,423.402832 439.673035,424.811401 
	C442.469086,426.375458 442.296417,428.035675 440.941345,430.462799 
	C436.411652,438.576080 432.020050,446.766449 427.414062,455.245819 
z"/>
<path fill="#000000" opacity="1.000000" stroke="none" 
	d="
M574.039673,122.102440 
	C576.941467,115.353432 579.786194,108.990326 582.408752,102.536972 
	C583.587402,99.636795 584.836243,98.123901 588.301270,99.628876 
	C591.669006,101.091583 591.074219,102.934639 589.931458,105.533638 
	C586.259705,113.884491 582.739441,122.302658 579.228882,130.723267 
	C578.102417,133.425323 577.031433,135.409302 573.394653,133.858276 
	C569.705017,132.284683 570.476196,130.091248 571.714539,127.472984 
	C572.494080,125.824570 573.169861,124.127052 574.039673,122.102440 
z"/>
<path fill="#000000" opacity="1.000000" stroke="none" 
	d="
M552.201294,465.634949 
	C550.372131,458.476471 548.699341,451.704895 546.952576,444.952484 
	C546.275574,442.335480 545.809082,440.277405 549.525330,439.367493 
	C552.885498,438.544769 553.966431,439.702515 554.693420,442.682434 
	C556.935486,451.872620 559.282043,461.039948 561.779907,470.163635 
	C562.577332,473.076324 561.886169,474.590302 558.924133,475.200958 
	C556.319031,475.738007 554.327515,475.563538 553.804504,472.336334 
	C553.459961,470.210144 552.830200,468.130157 552.201294,465.634949 
z"/>
<path fill="#000000" opacity="1.000000" stroke="none" 
	d="
M622.981323,415.242859 
	C625.894714,412.359528 628.814087,411.965759 631.592407,414.470276 
	C633.826050,416.483826 634.719421,419.176117 633.241333,422.065521 
	C631.753845,424.973389 629.113708,425.756409 626.104919,425.072815 
	C622.011230,424.142731 620.896301,420.850891 622.981323,415.242859 
z"/>
<path fill="#000000" opacity="1.000000" stroke="none" 
	d="
M393.411255,415.837769 
	C396.166809,412.381042 399.200226,411.802551 402.279938,414.387970 
	C404.696503,416.416748 405.104858,419.368073 403.646545,422.098969 
	C402.149811,424.901825 399.376251,425.997345 396.411957,424.867249 
	C392.299347,423.299347 391.995239,419.934296 393.411255,415.837769 
z"/>
</svg>