<svg version="1.1" id="Layer_1" xmlns="http://www.w3.org/2000/svg" xmlns:xlink="http://www.w3.org/1999/xlink" x="0px" y="0px"
	 width="100%" viewBox="0 0 1024 1024" enable-background="new 0 0 1024 1024" xml:space="preserve">
<path fill="#000000" opacity="1.000000" stroke="none" 
	d="
M91.803780,280.906372 
	C102.494385,261.261475 113.633110,242.324158 126.331573,224.339478 
	C146.864136,195.259399 170.351761,168.832413 196.745117,144.915390 
	C220.174713,123.684059 245.799179,105.488922 272.631104,88.935066 
	C298.954834,72.694702 327.035614,60.192738 356.182922,49.882454 
	C384.707336,39.792488 413.909363,32.509144 443.794556,28.211603 
	C477.981781,23.295418 512.320251,21.950333 546.873596,24.470116 
	C571.375244,26.256886 595.546509,29.869677 619.438843,35.162708 
	C644.012512,40.606670 667.965759,48.392464 691.249756,57.979965 
	C745.116089,80.160088 793.225769,111.430153 835.823975,151.085938 
	C880.720764,192.881561 915.772217,241.895538 942.145325,297.243683 
	C958.900635,332.407501 971.341919,368.933441 979.645813,407.015259 
	C986.201660,437.080261 989.604065,467.364075 990.510925,498.087189 
	C991.736145,539.595032 988.214661,580.572815 979.016296,621.062500 
	C969.488586,663.001770 955.002258,703.125671 935.370178,741.420044 
	C916.106812,778.995178 891.885315,813.144714 863.848877,844.556458 
	C835.220703,876.631104 802.605164,904.135437 766.692383,927.865356 
	C741.983398,944.192261 715.947449,957.889221 688.656860,969.120239 
	C649.827881,985.099609 609.568970,995.772400 567.716553,1000.444031 
	C510.318939,1006.850830 453.578339,1003.572083 397.668549,989.169983 
	C347.580017,976.267395 301.022095,955.255493 257.886444,926.560242 
	C207.676971,893.159180 164.647064,852.241699 129.213837,803.559692 
	C100.623795,764.279602 78.645378,721.398804 62.614994,675.465942 
	C52.318008,645.961304 44.833832,615.798096 40.249104,584.918884 
	C37.827785,568.610657 36.162964,552.212952 35.741493,535.703552 
	C35.210587,514.907288 35.083389,494.119019 36.732182,473.364441 
	C38.737137,448.126495 42.321743,423.140289 48.201889,398.472931 
	C57.940304,357.620056 72.326614,318.525482 91.803780,280.906372 
M238.289261,126.779816 
	C220.464996,140.252563 203.620483,154.878906 188.005432,170.837143 
	C164.321564,195.041504 142.720078,220.924622 124.541283,249.640915 
	C104.854477,280.739349 88.614723,313.518646 76.235992,348.092804 
	C62.618572,386.126587 53.477329,425.238037 49.972836,465.649536 
	C47.055321,499.292389 47.308548,532.851746 50.522221,566.400024 
	C53.501614,597.502625 60.587875,627.762878 69.952934,657.547546 
	C90.429688,722.671936 123.206192,780.813965 168.345764,832.010498 
	C201.631668,869.762878 239.363144,902.172241 282.901001,927.653015 
	C301.024811,938.260132 319.547119,948.074890 338.981995,956.060181 
	C363.337799,966.067383 388.164429,974.281189 414.057007,979.835022 
	C434.135956,984.141846 454.257599,987.781189 474.602417,989.492371 
	C512.552185,992.684326 550.487427,991.623413 588.125549,985.186096 
	C618.899902,979.922729 648.866089,971.754822 677.908569,960.150146 
	C729.187683,939.660217 775.317810,910.964966 816.374878,874.078552 
	C841.849243,851.191956 864.844360,826.055054 884.977417,798.324768 
	C907.573608,767.201965 926.879761,734.204834 941.514343,698.585205 
	C967.224426,636.008362 979.669800,570.993469 978.078369,503.225769 
	C977.123352,462.555634 971.755554,422.683716 960.886658,383.459076 
	C945.337097,327.342377 920.910461,275.567078 886.785278,228.352554 
	C861.450562,193.300293 831.904236,162.349136 798.116028,135.322098 
	C757.520325,102.849762 712.817444,77.971550 663.743164,60.853069 
	C635.983948,51.169861 607.514954,44.499500 578.469116,40.181675 
	C547.052551,35.511429 515.490173,34.219536 483.793274,36.254082 
	C467.342834,37.309998 450.947662,38.939976 434.740417,41.983238 
	C404.757019,47.613270 375.278870,55.191177 346.856964,66.396706 
	C325.466003,74.830246 304.571808,84.346016 284.796173,96.218246 
	C269.077515,105.654839 253.774246,115.694443 238.289261,126.779816 
z"/>
<path fill="#000000" opacity="1.000000" stroke="none" 
	d="
M800.937439,409.984619 
	C790.359375,382.821838 777.218750,357.627563 760.179260,334.226929 
	C742.556335,310.024994 722.136353,288.758453 698.900757,270.208710 
	C678.408691,253.849106 656.040344,240.338699 631.806030,230.044266 
	C604.831848,218.585983 576.967529,210.502502 547.800842,207.119797 
	C542.786560,206.538239 541.356445,204.333130 540.295410,195.917572 
	C542.218994,193.971939 544.667053,194.798431 546.853027,195.031998 
	C579.058716,198.473190 609.937805,206.886383 639.514099,220.062576 
	C668.781921,233.101364 695.322144,250.365814 719.474243,271.418579 
	C761.091003,307.694794 791.779419,351.514130 811.446655,403.126373 
	C825.898987,441.053497 833.279907,480.245789 832.939941,520.813660 
	C832.650635,555.339172 827.564270,589.258362 816.646851,621.992004 
	C803.311279,661.975830 783.523254,698.645630 756.728821,731.374634 
	C740.102173,751.683777 721.402283,769.911804 700.638794,785.893921 
	C683.331909,799.215393 664.726135,810.546448 645.026184,820.141724 
	C611.656982,836.394775 576.373779,845.413269 539.592346,848.907349 
	C514.252014,851.314453 488.973877,850.200500 463.905701,845.845886 
	C424.130188,838.936401 386.615662,825.765869 352.233002,804.327698 
	C321.286804,785.032288 294.493622,761.039062 271.272095,732.913940 
	C234.434448,688.297424 210.917130,637.370850 199.282806,580.932251 
	C192.576401,548.399170 191.713226,515.427979 195.552826,482.470734 
	C201.666199,429.996704 218.768494,381.352661 248.428757,337.465515 
	C261.871124,317.575378 276.955444,298.981384 294.343719,282.254791 
	C328.740204,249.167221 368.524200,224.949356 413.505371,209.366730 
	C435.267029,201.827957 457.742767,196.981689 480.750305,194.964569 
	C486.177826,194.488708 486.190338,195.148285 485.029999,200.413513 
	C483.705505,206.423416 479.813538,206.769684 474.806610,207.459137 
	C448.639618,211.062363 423.186707,217.571976 398.826355,227.926041 
	C371.534912,239.525940 346.109283,254.370667 323.202637,273.231445 
	C296.152618,295.503815 272.966675,321.240448 254.225510,350.999603 
	C239.840500,373.841583 228.521317,398.021301 220.339371,423.686920 
	C216.496613,435.741058 213.391983,448.007996 211.495743,460.540375 
	C211.212128,462.414734 210.567032,464.480560 212.436554,466.583832 
	C217.960236,463.809387 223.208588,460.352203 229.356400,458.704102 
	C246.217606,454.184174 262.049500,457.555054 277.401917,464.578979 
	C289.664795,470.189301 301.501495,476.736786 314.210510,481.364441 
	C325.108612,485.332672 336.346527,486.705414 347.518860,483.351593 
	C357.276855,480.422333 360.348724,475.083282 359.903748,464.904724 
	C359.678558,459.753204 359.545349,454.650055 360.552338,449.495239 
	C361.415192,445.078094 360.822052,440.719635 358.961884,436.346893 
	C343.955811,401.071564 349.472839,367.208374 367.073303,334.618561 
	C380.605530,309.561646 400.326691,290.047485 424.888580,275.910461 
	C441.892395,266.123566 460.659637,260.594360 480.184326,258.176147 
	C484.338776,257.661621 485.892609,256.127350 486.960815,251.975616 
	C493.188171,227.771545 500.864594,204.032303 511.559265,181.367386 
	C511.819702,180.815445 512.275024,180.355515 512.558899,179.963882 
	C514.361084,180.017059 514.639832,181.309158 515.078613,182.321136 
	C524.630615,204.349792 532.905090,226.820465 538.471436,250.223129 
	C539.538757,254.710693 540.770630,258.141266 546.771301,258.804199 
	C573.558472,261.763702 599.146179,268.827698 621.587646,284.428345 
	C628.239319,289.052399 635.978210,289.291229 643.162537,291.584778 
	C656.976318,295.994781 670.462463,312.238556 671.297974,326.751190 
	C671.871643,336.715546 671.328491,346.417328 666.021057,355.268127 
	C665.091064,356.819061 665.164001,358.412750 665.751160,360.074524 
	C668.847961,368.838867 670.365051,378.483307 674.280579,386.506378 
	C680.467102,399.182709 681.008118,411.565582 679.445435,424.793854 
	C678.693665,431.156555 682.158264,436.349487 685.176392,441.493622 
	C687.862427,446.071686 689.418762,450.767426 689.374817,456.145752 
	C689.314697,463.495361 694.034058,468.783661 698.050964,474.265778 
	C700.616943,477.767822 703.150146,481.271149 705.152527,485.128174 
	C710.227539,494.904053 706.722473,505.176300 696.715515,509.751984 
	C695.057251,510.510284 693.262878,510.965088 691.557678,511.627869 
	C686.929443,513.426819 685.740601,515.878357 687.254028,520.593384 
	C687.761841,522.175598 688.476624,523.690063 689.044189,525.254639 
	C690.808411,530.117554 690.715454,534.798096 687.209534,538.898071 
	C685.495422,540.902588 685.201294,542.718384 686.185181,545.249207 
	C688.694031,551.702393 687.365845,557.620422 681.875977,561.832275 
	C678.389282,564.507324 677.755493,567.576843 678.299194,571.407593 
	C678.462708,572.559265 678.620483,573.722412 678.921936,574.842285 
	C683.992615,593.679688 673.740051,607.276611 653.848816,609.719299 
	C641.877014,611.189514 630.293396,608.526001 618.727173,606.101196 
	C603.155945,602.836731 593.737305,611.373779 593.680908,627.304871 
	C593.608215,647.839233 612.673523,660.300842 630.104004,660.933228 
	C638.157471,661.225342 646.228027,662.185303 653.235779,666.149292 
	C667.668884,674.313721 683.201172,679.788757 698.460754,685.987915 
	C717.289368,693.636963 733.956726,704.270203 745.363708,721.728821 
	C745.639832,722.151428 745.896362,722.586731 746.579590,723.690613 
	C772.337891,693.198730 790.800232,659.231628 803.342529,622.409424 
	C827.437866,551.669434 826.431274,480.774323 800.937439,409.984619 
M423.637207,656.346497 
	C414.122620,660.859436 404.102539,662.698669 393.585022,662.431213 
	C383.926697,662.185608 374.255615,662.092957 364.596802,662.278687 
	C335.012115,662.847839 309.284332,686.016052 305.049164,715.231445 
	C303.609619,725.162048 305.252319,734.782043 306.006989,744.558594 
	C306.490021,750.815918 308.654877,755.567261 313.248840,759.780762 
	C326.051086,771.522827 339.872162,781.814148 354.452057,791.271423 
	C375.713715,805.062805 398.494995,815.397583 422.449219,823.368774 
	C426.161774,824.604187 429.789612,824.952515 433.690704,823.882324 
	C444.828186,820.826965 455.403046,816.435791 465.640411,811.154724 
	C471.806763,807.973694 478.080200,804.970886 484.012329,800.017334 
	C477.646698,794.275818 474.967041,787.411194 475.845032,779.234558 
	C475.937256,778.375854 475.339661,777.261414 474.734558,776.540527 
	C471.942108,773.214111 470.665833,769.257202 470.117889,765.105286 
	C469.734131,762.197754 468.370819,761.258301 465.574677,761.043152 
	C460.590057,760.659485 455.605957,759.971313 451.430206,756.771606 
	C446.706116,753.151672 445.839966,749.457642 448.610138,744.218628 
	C451.378052,738.983765 452.923401,733.342712 453.520996,727.541443 
	C454.329102,719.697144 457.906464,713.755066 464.286926,709.283936 
	C467.082306,707.325012 469.714325,705.132935 473.513672,702.204102 
	C464.406433,702.204102 456.635712,702.142212 448.866699,702.230896 
	C445.104675,702.273804 442.497437,700.955933 441.176453,697.236572 
	C437.438293,686.711304 437.933563,676.262085 441.789337,665.943115 
	C443.534424,661.272766 447.002075,659.849426 451.810150,661.329834 
	C459.118469,663.580200 466.152344,666.683044 473.720367,668.138672 
	C480.831635,669.506470 481.727386,668.957397 481.730103,661.828918 
	C481.746185,619.672913 481.724304,577.516968 481.672333,535.361023 
	C481.670197,533.620911 482.241425,531.648804 480.502838,530.200562 
	C478.312531,530.337219 477.523987,532.204041 476.546997,533.632629 
	C472.933533,538.916687 470.657562,544.777039 469.245300,551.021118 
	C466.251526,564.257996 466.569366,577.816895 465.268555,591.215454 
	C462.496216,619.771606 450.905762,642.585754 423.637207,656.346497 
M548.973877,484.164917 
	C543.923035,484.487000 545.116760,488.416626 545.098877,491.303314 
	C544.814331,537.282166 545.505371,583.264648 544.428894,629.241760 
	C544.187439,639.550903 544.976929,649.857910 544.587280,660.195618 
	C544.263306,668.790771 545.608887,669.459839 553.793457,667.736328 
	C560.671814,666.287781 567.189087,663.758301 573.796936,661.484558 
	C578.385071,659.905823 582.228577,660.845459 584.231995,665.458984 
	C587.748962,673.557861 589.486938,681.990601 586.913513,690.744751 
	C583.526611,702.265808 583.455261,702.184631 571.539551,702.249084 
	C566.327148,702.277344 561.056274,701.697693 554.641052,702.804993 
	C564.309326,713.606628 571.443298,724.972961 580.639465,734.685120 
	C584.800842,732.315674 586.910461,728.781128 589.564697,725.864319 
	C601.852356,712.361023 612.483398,697.714172 619.610107,680.756042 
	C622.892700,672.944946 622.882263,672.952271 614.724304,669.967773 
	C613.161316,669.395996 611.640564,668.708862 610.099548,668.076965 
	C584.169800,657.444641 571.954163,627.230469 591.029785,601.226196 
	C591.621765,600.419189 592.221497,599.590210 591.473999,598.064209 
	C589.684082,597.312256 587.553101,596.432007 585.433899,595.524292 
	C574.454895,590.821960 564.325256,584.823181 556.436218,575.669678 
	C554.594482,573.532715 551.946350,570.733032 555.049194,567.839905 
	C557.935913,565.148132 560.657959,567.325073 562.965515,569.318359 
	C566.122253,572.045166 569.344482,574.647705 572.905945,576.847778 
	C586.704224,585.371643 602.156189,589.645874 617.552856,593.867065 
	C627.814392,596.680420 638.349854,598.985718 649.072876,598.652649 
	C662.361450,598.239929 672.480286,590.799683 667.322510,576.350647 
	C665.145386,570.251709 665.103638,563.862000 657.794006,561.132568 
	C655.862061,560.411133 654.529785,558.070435 655.425293,555.655640 
	C656.324036,553.231995 658.599609,552.858582 660.841309,552.998779 
	C663.328430,553.154297 665.796387,553.757874 668.279175,553.801880 
	C671.273804,553.854919 674.599426,553.000122 674.427551,549.506958 
	C674.267395,546.253113 671.223572,544.642944 667.959045,544.418335 
	C666.844604,544.341675 665.669678,544.778198 664.557312,545.100708 
	C660.080750,546.398499 655.662354,547.930298 651.135315,549.009827 
	C647.712463,549.825928 644.028687,549.646912 643.052551,545.411377 
	C642.152954,541.507996 645.190979,539.903259 648.360657,538.748657 
	C654.301331,536.584595 660.222351,534.366516 666.152771,532.174133 
	C669.412476,530.969055 673.657532,530.638123 675.681763,528.344910 
	C678.103271,525.601746 674.051697,522.022888 674.099121,518.567566 
	C674.101379,518.402710 674.035095,518.236206 674.041626,518.072083 
	C674.204041,513.993835 672.583862,513.034973 668.515076,513.949524 
	C661.511902,515.523682 655.575500,510.816284 655.235229,504.080383 
	C655.113586,501.672424 656.085083,499.885437 658.206360,498.758240 
	C660.364380,497.611511 662.131226,498.235870 663.331848,500.223358 
	C665.066223,503.094238 667.470459,503.220917 670.247253,502.176361 
	C674.803589,500.462341 679.250183,499.606628 684.338684,500.443146 
	C688.445435,501.118286 692.773132,498.739471 695.065918,495.207886 
	C697.132385,492.024994 693.768372,489.434052 692.019287,486.917603 
	C689.074219,482.680450 685.956848,478.562073 683.046570,474.301849 
	C678.435608,467.552368 678.460999,467.462677 670.634399,470.398621 
	C651.313110,477.646423 631.249268,481.486206 610.778198,483.321045 
	C590.509888,485.137665 570.198303,485.073700 548.973877,484.164917 
M517.855713,484.868347 
	C518.281311,511.857574 518.884338,538.845459 519.087402,565.836365 
	C519.336792,598.992493 519.710022,632.142395 520.854004,665.282227 
	C520.991882,669.276245 522.405457,670.978760 526.536377,670.848083 
	C530.473328,670.723633 533.086975,669.749146 532.802429,665.189209 
	C532.719543,663.861938 532.822266,662.523682 532.823425,661.190491 
	C532.921997,548.216858 533.055908,435.243225 533.069580,322.269592 
	C533.071289,307.946014 534.076721,293.529510 532.306213,279.310822 
	C529.370728,255.735962 521.964539,233.219604 514.307800,210.824005 
	C514.073059,210.137421 513.924500,209.127777 512.461426,209.401352 
	C510.233337,215.708008 507.665131,222.043976 505.749023,228.571350 
	C499.327606,250.446274 493.002380,272.256744 493.072388,295.487701 
	C493.332581,381.819366 493.177002,468.152252 493.201630,554.484680 
	C493.212097,591.150757 493.322388,627.816833 493.268524,664.482788 
	C493.262543,668.563538 494.390839,670.713867 498.840576,670.760132 
	C504.595276,670.820007 505.592041,669.994873 505.708374,663.819519 
	C506.336121,630.502686 507.273804,597.188171 507.528656,563.868469 
	C507.991211,503.386200 509.231964,442.920502 510.575592,382.454742 
	C511.008636,362.967041 511.308350,343.476349 511.721954,323.988190 
	C511.750366,322.649780 511.146576,320.949188 512.987793,320.087494 
	C514.816711,320.991119 514.272522,322.686676 514.310608,324.043396 
	C514.904846,345.191528 515.518982,366.339630 515.972046,387.491089 
	C516.464355,410.478241 516.788818,433.469025 517.198608,456.458008 
	C517.361877,465.618042 517.557495,474.777466 517.855713,484.868347 
M280.000366,591.458008 
	C271.074615,595.125183 263.417175,600.567566 256.882690,607.675903 
	C246.625687,618.833618 241.258209,632.198669 238.237335,646.853638 
	C237.091766,652.411072 237.486343,657.375000 239.960953,662.318237 
	C245.258316,672.900269 251.049591,683.202576 257.531677,693.106750 
	C258.380707,694.403992 258.843445,696.306885 261.183380,696.097534 
	C262.775635,694.479492 262.860504,692.222595 263.389526,690.179504 
	C265.785370,680.926819 268.764130,671.881470 274.954224,664.407959 
	C292.584778,643.122070 315.488190,637.156189 341.838898,642.180298 
	C352.786224,644.267517 363.569855,647.199707 374.490173,649.444885 
	C401.123199,654.920471 424.038818,649.287170 441.248199,626.773254 
	C450.162659,615.111084 452.604706,601.473328 453.684692,587.389343 
	C454.511780,576.603210 454.679443,565.736267 456.102966,555.033264 
	C458.213623,539.163818 465.639709,525.741089 477.018860,514.477478 
	C478.991241,512.525146 481.553497,510.741058 481.627045,507.603668 
	C481.767548,501.609802 481.729980,495.609711 481.654449,489.613647 
	C481.616455,486.595795 480.126221,485.738342 477.423126,487.225800 
	C462.481628,495.447906 451.635712,507.075439 447.176208,523.909485 
	C443.055969,539.463013 443.254120,555.581055 441.117157,571.393982 
	C438.586334,590.121826 431.833282,606.937683 416.825775,619.192200 
	C400.485138,632.535217 381.470215,635.256287 361.164917,631.662659 
	C349.205200,629.546021 337.399445,626.647217 325.331818,625.054260 
	C303.953400,622.232239 285.624481,628.657776 269.563507,642.611267 
	C267.426392,644.467957 264.970917,647.492981 261.908386,644.279480 
	C258.998505,641.226135 260.498535,638.132446 262.944580,635.427246 
	C263.613098,634.687805 264.338379,633.995850 265.072235,633.319702 
	C278.600861,620.854919 294.973175,614.949829 312.902832,612.804810 
	C327.466888,611.062378 341.983856,609.023682 356.001190,604.590454 
	C372.169647,599.476807 386.271545,591.239319 394.453491,575.616699 
	C397.610443,569.588806 400.082825,563.071655 399.596680,555.456116 
	C394.741699,556.795471 392.413422,560.325134 389.170013,562.499878 
	C365.998749,578.036072 340.675568,586.584778 312.631378,586.223450 
	C301.679077,586.082336 291.076538,587.671631 280.000366,591.458008 
M512.355774,750.948425 
	C503.612488,753.023315 494.888641,755.185547 486.117065,757.132996 
	C482.227905,757.996399 480.733429,760.240662 481.450806,763.970398 
	C482.185394,767.789795 484.390656,769.052795 488.364838,768.189880 
	C497.634613,766.177124 506.964966,764.430237 516.300781,762.741577 
	C520.152405,762.044739 524.169556,762.366028 524.858643,767.170654 
	C525.509888,771.711853 522.190002,773.419495 518.176514,774.267029 
	C509.708801,776.055176 501.267334,777.976074 492.849152,779.985229 
	C490.141602,780.631409 487.693573,781.946045 488.120300,785.397888 
	C488.509399,788.545166 491.145691,789.380249 493.606079,789.546570 
	C498.079559,789.849060 502.621246,789.997559 507.074402,789.575745 
	C517.803040,788.559631 526.597839,791.861694 533.958313,799.811279 
	C541.328125,807.771057 550.326721,813.596985 560.785706,816.496216 
	C567.627808,818.392822 573.262268,821.869507 578.291504,826.562439 
	C580.505005,828.627930 582.740112,828.976929 585.591431,828.353699 
	C597.340149,825.785217 608.727356,822.092163 619.828491,817.523376 
	C622.483765,816.430542 625.746826,816.342529 627.731445,813.473328 
	C627.164124,812.546204 626.738770,811.643005 626.130493,810.886902 
	C599.199585,777.409912 572.747681,743.547302 545.288818,710.494995 
	C540.714905,704.989380 534.855225,702.199951 527.817505,702.411926 
	C520.169556,702.642334 512.464172,702.962158 504.986328,704.699707 
	C497.248291,706.497620 489.211212,707.422852 482.158661,711.558838 
	C479.441406,713.152222 478.594696,715.271484 479.860931,718.278442 
	C481.100189,721.221558 483.295349,720.861633 485.702332,720.323853 
	C496.099335,718.000916 506.515656,715.763367 516.901489,713.392090 
	C520.891479,712.481140 523.982422,713.393494 525.252319,717.469727 
	C526.482483,721.418640 524.324524,724.096497 519.461426,724.890259 
	C507.606812,726.825317 496.096649,730.217712 484.440521,732.993408 
	C482.411133,733.476624 480.700653,734.312927 479.453552,736.031067 
	C477.700134,738.446838 477.794281,741.126221 478.771423,743.658997 
	C479.940125,746.688232 482.531372,745.044678 484.428436,744.725098 
	C490.333740,743.730469 496.202332,742.506226 502.065491,741.276917 
	C507.114288,740.218384 512.102112,738.831116 517.181213,737.967896 
	C520.802795,737.352417 524.139099,738.545654 524.817139,742.582581 
	C525.442993,746.308472 523.800232,749.029968 519.546326,749.521423 
	C517.403442,749.768982 515.297546,750.336121 512.355774,750.948425 
M403.915253,333.419098 
	C407.853271,330.094360 411.791260,326.769623 415.729279,323.444916 
	C416.339813,327.088593 415.181610,329.581879 413.813690,332.017456 
	C407.521057,343.221222 402.148926,354.831177 397.971832,367.005341 
	C392.140930,383.999512 391.471863,401.224396 395.294159,418.685913 
	C395.741058,420.727570 395.883881,423.645996 398.363342,423.942688 
	C402.735199,424.465881 406.942535,422.829285 410.836945,421.009674 
	C413.606384,419.715637 412.597595,416.609833 412.692291,414.211212 
	C413.584564,391.608978 422.010071,372.209473 437.402161,355.740845 
	C448.640991,343.715942 462.675201,335.768219 477.148315,328.460388 
	C479.049072,327.500610 481.472290,327.011017 481.488037,324.242828 
	C481.538696,315.335663 481.506897,306.428009 481.506897,297.520569 
	C480.961517,297.297333 480.416168,297.074097 479.870789,296.850861 
	C465.499756,308.808838 447.787262,314.918182 432.316467,324.948944 
	C430.143494,326.357819 427.778381,327.934845 425.640472,325.464111 
	C423.559814,323.059631 425.953522,321.214294 427.275879,319.402100 
	C427.860626,318.600739 428.607819,317.914246 429.306549,317.200409 
	C436.854065,309.490204 445.991882,304.018555 455.240509,298.678467 
	C462.884705,294.264740 470.583221,289.921265 477.689392,284.647827 
	C481.672333,281.692139 482.775360,277.145020 481.471710,273.015472 
	C480.224518,269.064758 476.000946,271.635590 473.078400,271.391113 
	C472.754822,271.364014 472.417969,271.467072 472.089996,271.525177 
	C446.286377,276.099915 423.716705,287.471313 404.674286,305.237701 
	C380.305389,327.973694 365.220825,355.787415 362.501099,389.421478 
	C361.207550,405.418182 364.185638,420.822266 371.484192,435.314148 
	C375.816284,434.615601 378.862732,432.135529 382.310760,430.565277 
	C385.115936,429.287811 385.539307,427.432190 384.811707,424.510040 
	C380.306244,406.415955 379.843872,388.152863 384.800171,370.168549 
	C388.450165,356.924286 392.140198,343.389587 403.915253,333.419098 
M374.343994,521.887207 
	C358.613373,534.761230 340.543060,537.546143 321.144379,533.882263 
	C313.648071,532.466492 306.072327,530.998169 299.386353,526.907410 
	C297.441589,525.717468 295.680511,524.281677 296.348694,521.751953 
	C297.014862,519.229797 299.314301,518.857178 301.540955,518.686096 
	C304.770325,518.437927 307.779144,519.393677 310.822754,520.319275 
	C322.127289,523.756958 333.729462,525.219727 345.363861,523.092285 
	C363.555450,519.765869 375.059479,507.621185 383.659210,492.201233 
	C386.289948,487.484161 388.162567,482.421753 389.552490,476.385834 
	C380.913147,477.819885 373.034149,477.841400 367.445740,485.252686 
	C358.609741,496.970917 346.012939,502.819427 332.039185,506.074615 
	C319.650482,508.960571 307.160797,507.543732 294.748535,506.604553 
	C268.328949,504.605438 244.454361,510.318024 224.455719,528.584961 
	C222.840942,530.059875 220.635468,531.277100 220.525146,533.851501 
	C222.479721,535.474304 224.249054,534.565674 225.952118,534.110779 
	C231.650970,532.588745 237.448181,532.348511 243.300598,532.565247 
	C262.847443,533.289185 280.779388,539.529114 298.127289,548.126648 
	C308.996857,553.513550 319.835175,559.096680 331.808716,561.854614 
	C347.133789,565.384399 361.946198,564.199036 375.949371,556.786499 
	C392.220703,548.173279 401.899597,534.292664 406.797516,516.864563 
	C410.765594,502.744995 416.134369,489.439728 427.103912,479.097107 
	C428.133545,478.126343 429.375519,477.021301 428.603455,475.172272 
	C428.198730,474.949646 427.778625,474.526550 427.341431,474.508087 
	C423.352539,474.339752 419.361206,474.164368 415.369598,474.137756 
	C403.491211,474.058594 403.491211,474.084686 399.517456,485.146576 
	C394.415314,499.349579 386.972168,511.965363 374.343994,521.887207 
M646.999023,765.216736 
	C646.743225,762.779114 647.866760,760.687012 648.648621,758.499390 
	C656.299194,737.093750 660.158325,715.105591 658.723633,692.318115 
	C658.619385,690.662170 658.815857,688.826355 656.796448,686.934998 
	C656.219604,689.774658 655.662354,691.845825 655.393066,693.953674 
	C653.798279,706.435791 650.370789,718.408936 644.886292,729.703186 
	C637.575378,744.758667 627.803711,758.273193 617.396851,771.284485 
	C614.549927,774.843994 614.368896,777.231689 617.238647,780.665955 
	C623.535706,788.201782 629.826050,795.780334 635.517517,803.769958 
	C638.536865,808.008606 640.942261,808.733093 645.631775,806.295044 
	C679.844177,788.507812 709.841919,765.349548 735.701294,736.766113 
	C737.846802,734.394470 738.161438,732.396057 736.445496,729.682556 
	C732.309204,723.141724 727.189514,717.495972 721.303894,712.538879 
	C709.499146,702.596313 695.427979,696.927124 681.192383,691.656738 
	C678.189514,690.544922 675.424255,688.309814 672.042114,688.758667 
	C670.866028,690.310120 671.128723,691.863525 671.222900,693.321655 
	C672.821472,718.078003 667.310852,741.580139 658.819153,764.583313 
	C657.858276,767.186157 657.082947,769.752014 653.867493,770.124817 
	C650.626099,770.500549 648.475891,768.893311 646.999023,765.216736 
M654.432983,463.858612 
	C660.440857,462.345032 666.030457,459.780731 671.646484,457.225555 
	C675.628906,455.413605 676.811890,452.752594 675.105347,448.833191 
	C673.336670,444.771057 670.413696,444.884033 666.876648,446.538696 
	C658.522339,450.446838 649.760559,453.044464 640.551331,453.887085 
	C636.408508,454.266144 632.212830,454.719971 628.110535,453.952179 
	C628.223755,450.900055 630.143860,450.790253 631.658813,450.320984 
	C641.572693,447.249908 650.825745,442.697357 659.879272,437.717041 
	C662.055664,436.519775 664.274292,435.220428 666.059875,433.530914 
	C669.251953,430.510620 668.175964,426.447296 666.874084,423.279541 
	C665.635315,420.265228 662.697144,422.718353 660.788208,423.398071 
	C645.602295,428.805389 629.902222,429.765564 613.998718,429.160919 
	C612.587646,429.107269 610.909363,429.333374 610.376099,427.074585 
	C611.696411,425.346954 613.839966,425.427490 615.696594,425.120178 
	C622.272766,424.031647 628.797119,422.720245 635.183472,420.814301 
	C645.234436,417.814636 655.229919,414.662292 664.570190,409.748047 
	C667.514771,408.198761 669.578674,406.579346 667.885620,402.751801 
	C666.125732,398.772705 663.584045,400.808990 661.235840,401.622345 
	C642.765137,408.020233 623.771423,412.234039 604.466858,415.055145 
	C586.500549,417.680756 568.395996,418.956177 550.271484,419.799225 
	C546.365601,419.980896 544.996277,421.405792 545.078003,425.202301 
	C545.242798,432.860229 545.202148,440.525513 545.086487,448.185364 
	C545.026978,452.124359 546.526306,453.905762 550.659058,453.927094 
	C557.477844,453.962219 564.293762,454.442169 571.112305,454.695526 
	C573.252930,454.775085 575.413330,454.693939 576.712158,456.933014 
	C575.347900,459.474030 573.013123,459.111816 570.956726,459.287628 
	C563.827332,459.897156 556.700195,460.614105 549.556213,460.940887 
	C545.257996,461.137512 544.880310,463.637634 544.933289,466.964569 
	C544.989014,470.464630 546.029724,472.762451 550.065308,472.706909 
	C554.393799,472.647339 558.725769,472.761414 563.055115,472.849884 
	C593.600525,473.473999 623.964600,472.230286 654.432983,463.858612 
M652.445496,337.460632 
	C653.032593,338.464447 653.560669,339.509216 654.222290,340.461304 
	C654.987793,341.563019 655.890320,342.765320 657.432495,342.337280 
	C658.853271,341.942993 659.473083,340.649536 659.606812,339.254395 
	C660.587158,329.028900 659.891052,319.274261 652.193420,311.300903 
	C648.888550,307.877716 644.841187,305.614136 640.794861,303.328674 
	C628.902344,296.611298 617.300293,299.528534 608.622986,308.600769 
	C604.831299,312.565002 601.672302,317.069214 598.543945,321.613617 
	C592.388977,330.554565 585.304565,338.690186 576.404175,345.133240 
	C568.175598,351.090057 558.724731,354.333496 549.397217,357.896423 
	C547.713318,358.539642 545.426208,358.810303 545.340332,361.044800 
	C545.030884,369.104156 544.603882,377.186066 545.546265,384.915924 
	C547.578979,385.879944 548.809631,385.113556 549.917297,384.497864 
	C555.496643,381.396576 561.491272,379.334229 567.587585,377.655884 
	C591.691284,371.019897 608.037415,355.531952 618.684937,333.395996 
	C619.425842,331.855774 619.735596,329.775604 623.008179,329.508240 
	C624.913452,342.319061 616.869751,351.599792 612.103882,362.064880 
	C620.727112,357.686127 627.380005,351.163269 632.674622,343.309692 
	C636.794189,337.199249 639.610779,330.476044 640.493530,323.005554 
	C640.819275,320.248413 642.294373,317.748322 645.575134,317.795563 
	C648.652405,317.839874 650.340393,320.087616 651.142883,322.763306 
	C651.706482,324.642639 651.774536,326.689728 651.913696,328.672455 
	C652.099854,331.326660 652.140869,333.990997 652.445496,337.460632 
M371.602966,620.931213 
	C403.667206,623.989319 424.691895,601.528687 428.718842,573.692810 
	C430.455719,561.686707 431.162567,549.534668 432.747589,537.502930 
	C435.092712,519.701111 439.993744,502.994354 453.775085,490.131683 
	C457.989502,486.198273 462.734070,482.943695 467.049042,478.746887 
	C459.844543,477.185760 452.812775,475.355499 445.829987,478.997589 
	C434.430115,484.943604 427.552795,494.757050 422.870972,506.320496 
	C418.213409,517.823914 416.047882,529.947266 414.315216,542.170227 
	C413.032227,551.221069 412.280884,560.380493 409.587067,569.174744 
	C402.033539,593.833862 384.493744,607.598389 360.375031,614.216003 
	C357.356934,615.044128 354.008575,615.248962 350.896240,617.861816 
	C357.783508,619.896423 364.166931,620.659424 371.602966,620.931213 
M248.449997,599.959290 
	C257.775696,590.388611 268.319336,582.815247 281.387695,579.061584 
	C292.544373,575.856934 303.873291,574.478638 315.448456,574.713135 
	C318.474121,574.774475 321.590576,574.854858 324.485657,572.583740 
	C323.672760,571.928101 323.238770,571.338379 322.673767,571.157288 
	C308.795441,566.709290 295.873779,559.664734 280.796875,558.478882 
	C256.585846,556.574402 233.525208,568.293274 222.288254,589.878967 
	C220.156387,593.974121 217.212845,598.253479 217.837616,602.932739 
	C219.164474,612.869995 222.810684,622.245605 226.502243,631.539185 
	C226.765945,632.203064 227.623993,632.630920 229.057358,633.955566 
	C233.417892,621.227844 238.881973,609.761597 248.449997,599.959290 
M578.813843,327.311096 
	C589.565552,316.064911 595.837341,301.050018 609.872009,291.900421 
	C599.496521,284.075531 588.385254,280.419647 577.194580,276.518127 
	C574.416931,281.659912 572.793762,286.745850 569.815125,291.178131 
	C564.143433,299.617615 556.738159,306.181671 548.404968,311.833252 
	C546.552734,313.089447 544.180054,313.937805 544.600403,317.045105 
	C545.653503,324.831207 544.743042,332.671661 545.076843,340.480286 
	C545.158020,342.380157 544.517090,344.521637 546.883118,346.417053 
	C558.544495,342.514465 569.875305,337.696686 578.813843,327.311096 
M307.336395,679.883606 
	C315.886658,668.484314 327.674500,661.278015 340.339386,655.568420 
	C339.567871,653.850647 338.803589,653.585449 337.979034,653.393677 
	C310.208374,646.932983 284.512451,661.564819 276.239227,688.962646 
	C272.398285,701.682312 269.042114,714.697266 280.861664,725.565369 
	C284.536469,728.944458 286.812286,733.796326 292.583282,737.085266 
	C291.220490,715.876404 294.300537,696.862000 307.336395,679.883606 
M641.547363,703.067078 
	C643.684448,695.487488 644.074768,687.676758 644.794128,679.891663 
	C645.198853,675.512329 642.550842,674.557068 639.311096,673.670654 
	C635.978638,672.758911 634.844849,674.827576 633.893738,677.340149 
	C632.716797,680.449219 631.516663,683.550049 630.280884,686.636169 
	C622.544006,705.957886 609.549866,721.746094 596.237305,737.329590 
	C588.897034,745.922058 588.843994,746.044128 596.566650,754.820129 
	C599.676025,758.353638 601.499512,763.135193 606.375977,765.488342 
	C621.602966,746.820251 635.278870,727.520630 641.547363,703.067078 
M611.628540,402.035645 
	C622.024170,399.717468 632.451599,397.530853 642.801941,395.025513 
	C647.965271,393.775665 653.009216,392.008575 658.064758,390.346436 
	C660.721558,389.472931 662.228455,387.904358 661.290161,384.685577 
	C658.111633,373.781219 654.403748,363.105713 648.470276,353.341888 
	C645.559998,348.552734 644.434082,348.469971 640.936096,352.738281 
	C636.587585,358.044464 631.966797,363.123444 626.145630,366.791168 
	C614.794189,373.943329 605.606506,383.065247 599.184021,394.902100 
	C597.474060,398.053650 594.030701,400.041687 592.737915,404.186157 
	C599.124329,404.224762 604.924744,402.897919 611.628540,402.035645 
M425.877899,402.331390 
	C425.455261,405.122955 425.006165,407.910828 424.615143,410.706787 
	C423.522461,418.519806 423.745789,418.753235 431.285370,417.874359 
	C433.099426,417.662872 434.909454,417.416656 436.723297,417.203125 
	C439.170563,416.915131 440.388336,415.671570 440.941650,413.131165 
	C445.601562,391.737305 458.046570,376.409393 477.540039,366.658508 
	C479.020111,365.918182 481.040161,365.250854 481.168701,363.504974 
	C481.733124,355.837585 482.180481,348.136749 480.379761,340.148834 
	C474.506531,341.514771 470.519531,344.913849 466.187714,347.514313 
	C445.424072,359.979004 431.329834,377.481628 425.877899,402.331390 
M435.431763,447.073334 
	C414.676941,452.434753 393.396576,456.119232 373.919037,465.599304 
	C376.419159,467.433075 378.664551,466.577515 380.893219,466.137146 
	C400.465393,462.269958 420.185944,461.750854 440.000519,463.540649 
	C452.415771,464.662109 464.829010,465.817078 477.226532,467.115997 
	C480.494659,467.458435 481.824707,466.465179 481.731812,463.122070 
	C481.588654,457.967957 481.513458,452.797119 481.770416,447.651398 
	C481.976471,443.524719 480.431549,442.086243 476.295715,442.150787 
	C462.772888,442.361877 449.509430,444.541138 435.431763,447.073334 
M270.315552,474.272675 
	C265.183136,471.823608 259.857544,469.770569 254.267639,468.866486 
	C238.433441,466.305481 224.551559,470.198517 213.559311,482.327362 
	C211.157135,484.977966 209.288025,488.123779 209.643799,492.134369 
	C212.436340,492.292419 214.320114,490.742310 216.339020,489.733429 
	C227.437851,484.186981 239.374863,482.200989 250.705032,486.846588 
	C265.788666,493.031189 281.052795,495.894012 297.196899,495.439758 
	C301.487427,495.319061 305.800201,496.281616 310.114258,496.581421 
	C312.270264,496.731232 314.580353,497.059967 317.614014,494.794556 
	C300.278839,490.383545 286.388763,480.850189 270.315552,474.272675 
M553.831055,679.495544 
	C519.450256,683.546631 485.212250,684.737488 451.649139,673.957214 
	C449.561523,677.761963 450.439453,681.492798 450.180664,685.088074 
	C449.873993,689.348755 451.640442,690.979980 456.007263,690.917786 
	C470.170135,690.715881 484.337524,690.824646 498.503174,690.820862 
	C522.001587,690.814697 545.500122,690.831543 568.998413,690.784058 
	C571.371277,690.779236 574.523987,691.593567 575.209961,688.181702 
	C576.150085,683.505188 576.551575,678.723328 574.562927,673.589905 
	C567.842102,676.128784 561.360779,678.143127 553.831055,679.495544 
M404.627289,443.973480 
	C419.963287,440.335907 435.554474,439.569916 451.244629,439.592194 
	C453.702911,439.595673 456.039459,442.092133 457.783386,440.967346 
	C464.478607,436.649200 471.891724,437.824860 479.102264,437.355988 
	C481.054382,437.229034 481.663116,436.119324 481.679321,434.401794 
	C481.696594,432.569641 481.599030,430.728302 481.749207,428.907257 
	C482.031616,425.482117 480.531494,424.669800 477.277191,425.023315 
	C457.103912,427.214752 436.782410,428.159180 416.838745,432.256531 
	C403.239777,435.050415 390.170868,439.478149 377.670441,445.494812 
	C375.070099,446.746429 371.560730,447.911804 373.031525,452.855743 
	C383.402740,449.735382 393.382294,446.082611 404.627289,443.973480 
M499.067719,822.794922 
	C498.894806,830.285034 501.776367,835.004944 507.649017,836.850586 
	C514.956116,839.147034 521.536804,837.126709 525.361938,831.412476 
	C528.876526,826.162231 528.301392,819.920654 523.503906,814.465210 
	C520.909973,811.515686 518.857178,808.562866 518.637817,804.402283 
	C518.418213,800.238098 514.848206,801.529358 512.447693,801.413940 
	C510.281921,801.309753 507.173798,800.633606 507.187988,804.209961 
	C507.206177,808.791016 504.916412,812.043091 502.138916,815.244629 
	C500.491058,817.143921 499.198669,819.296570 499.067719,822.794922 
M227.538208,565.016357 
	C236.447098,556.527405 247.330780,551.501831 259.082977,548.100830 
	C258.037109,545.791382 256.587677,545.693726 255.343338,545.470215 
	C243.617264,543.364014 232.082886,544.390503 220.982452,548.539856 
	C208.503067,553.204712 207.535538,555.212891 209.909958,568.122864 
	C210.661697,572.210205 210.433365,576.636047 213.826981,581.150330 
	C217.809372,574.929260 222.043747,569.870361 227.538208,565.016357 
M456.406219,415.046631 
	C462.043823,414.652069 467.677002,414.170410 473.320068,413.883423 
	C481.688446,413.457825 481.692261,413.516602 481.701904,404.896698 
	C481.704865,402.232452 481.701874,399.568237 481.701843,396.903992 
	C481.701782,390.651367 481.701813,384.398743 481.701813,377.048065 
	C472.276001,382.158813 465.953400,388.840607 460.458923,396.309143 
	C457.005951,401.002716 454.285858,406.176971 453.208008,412.057922 
	C452.819244,414.179108 452.654053,415.825287 456.406219,415.046631 
M586.076416,392.577881 
	C588.937622,389.066437 592.264954,385.777039 592.614136,379.643921 
	C580.551941,385.635590 568.906067,389.442322 557.436096,393.714935 
	C554.956726,394.638519 552.599243,395.916412 550.252319,397.157257 
	C548.943298,397.849335 547.613220,398.641022 546.571777,399.670227 
	C544.537537,401.680481 545.020447,404.294312 545.485229,406.727142 
	C545.840393,408.586060 547.502747,408.692688 549.052429,408.665894 
	C563.334900,408.418976 576.361877,405.218323 586.076416,392.577881 
M242.844009,496.384613 
	C231.628250,495.263153 221.757980,498.831543 213.032410,505.531464 
	C205.884964,511.019623 203.891647,519.719360 208.036270,528.405823 
	C218.863083,514.485657 233.818207,506.897949 249.069962,499.972809 
	C247.415878,496.822998 245.276825,497.237305 242.844009,496.384613 
M467.574005,823.209717 
	C462.510529,825.560547 457.447083,827.911438 451.184235,830.819092 
	C463.423828,833.850159 474.501709,835.686218 485.764099,836.395752 
	C487.465332,836.502930 488.883728,835.599976 488.268524,833.637207 
	C486.221527,827.105896 485.296814,820.532349 488.016541,813.679199 
	C487.538971,813.515930 487.061371,813.352722 486.583801,813.189453 
	C480.467224,816.414734 474.350616,819.640015 467.574005,823.209717 
M564.005676,277.612701 
	C565.218994,275.125458 564.076599,273.790314 561.716187,273.286102 
	C556.856567,272.248016 551.990845,271.225006 546.988403,271.093689 
	C544.545715,271.029572 543.114746,271.955139 543.349731,274.559021 
	C544.072205,282.565796 544.844543,290.568054 545.668884,299.330353 
	C553.519897,293.188019 559.369812,286.388550 564.005676,277.612701 
M564.130432,830.781128 
	C556.418518,827.385010 548.473755,824.541504 540.446594,819.905884 
	C539.385437,825.824829 538.494568,830.794006 537.572327,835.938171 
	C538.377686,836.247192 538.977356,836.694641 539.552612,836.665283 
	C547.709290,836.248779 555.753113,835.054688 563.646912,832.935059 
	C564.455811,832.717896 565.252808,832.293701 564.130432,830.781128 
M466.225769,749.120056 
	C467.113617,748.477478 467.516327,747.641663 467.290558,746.533936 
	C465.919617,739.806946 466.243103,733.379089 469.912384,727.260376 
	C471.047455,725.367554 470.022522,723.536560 467.846283,722.696777 
	C465.795471,724.462769 465.923004,726.793518 465.469452,728.835999 
	C464.281158,734.187195 463.631287,739.654480 461.552734,744.799988 
	C459.657684,749.491394 460.168976,750.024963 466.225769,749.120056 
z"/>
<path fill="#000000" opacity="1.000000" stroke="none" 
	d="
M599.476624,156.685516 
	C588.656006,161.835220 577.788452,162.469727 566.503601,160.171127 
	C557.544800,158.346298 548.495117,156.950790 539.461365,155.519196 
	C535.551575,154.899597 533.876282,153.684799 534.557129,149.016739 
	C537.800293,126.779915 542.485352,104.804771 546.151367,82.649200 
	C546.422668,81.009331 546.651062,79.362129 546.882812,77.716003 
	C547.203003,75.442314 548.510376,74.557724 550.731262,74.969345 
	C564.132507,77.453232 577.834229,78.377197 590.895874,82.623238 
	C626.796204,94.293579 626.890137,132.941391 606.469604,152.140259 
	C604.489441,154.001984 602.119690,155.191208 599.476624,156.685516 
M569.536438,92.161819 
	C561.378723,90.487999 561.370300,90.486557 560.004456,98.494713 
	C557.826965,111.262016 555.925964,124.084808 553.360840,136.773529 
	C552.348267,141.782242 553.309204,143.731064 558.491211,144.736893 
	C567.528931,146.491058 576.619019,148.486877 585.619202,146.139175 
	C596.322876,143.347137 602.582031,133.591095 603.386047,120.481575 
	C603.948181,111.314415 597.915161,101.554214 589.097595,97.171936 
	C583.185913,94.233887 576.692383,93.617302 569.536438,92.161819 
z"/>
<path fill="#000000" opacity="1.000000" stroke="none" 
	d="
M727.222229,153.017090 
	C753.033203,143.519592 779.358887,158.758423 786.588318,182.593704 
	C791.336914,198.249512 787.464111,212.750626 775.392151,224.223557 
	C762.970825,236.028595 748.383911,239.696945 732.087341,233.428619 
	C717.249084,227.721222 706.807190,217.469879 702.441772,201.899918 
	C697.041077,182.637375 707.687317,161.667435 727.222229,153.017090 
M728.304443,215.254272 
	C732.728455,218.412964 737.584351,220.319229 743.054993,220.795395 
	C757.420959,222.045807 775.795166,205.855408 771.507446,186.495331 
	C767.894287,170.180710 745.656433,157.936478 729.618103,170.268600 
	C714.371765,181.991745 713.401062,199.741852 728.304443,215.254272 
z"/>
<path fill="#000000" opacity="1.000000" stroke="none" 
	d="
M555.448242,961.917480 
	C545.790100,963.638367 539.060242,960.969055 534.936096,951.876892 
	C533.056030,947.732056 529.443726,944.383423 526.693359,940.617981 
	C525.518677,939.009766 524.105713,938.137329 522.079895,938.161072 
	C517.748474,938.211792 513.414490,938.262390 509.084717,938.167053 
	C506.075989,938.100830 504.889771,939.504944 504.917938,942.396423 
	C504.965057,947.227478 504.824951,952.060913 504.903687,956.890991 
	C504.959930,960.341125 503.726807,962.126648 499.974213,962.113464 
	C486.320221,962.065674 488.000824,963.027649 488.019867,950.535828 
	C488.051575,929.717590 488.014465,908.899170 488.039185,888.080872 
	C488.047241,881.278992 488.398499,880.786499 495.002441,880.976501 
	C507.641846,881.339966 520.352844,879.609680 532.916382,881.775574 
	C549.453796,884.626648 558.079895,895.713989 557.227783,912.451172 
	C556.830261,920.259583 551.932312,927.592651 541.709900,935.277771 
	C547.026550,943.951416 553.285889,952.016296 559.717529,959.703247 
	C558.968872,962.023804 557.260315,961.627747 555.448242,961.917480 
M505.014008,912.482239 
	C505.049438,915.315002 505.114685,918.147827 505.111176,920.980530 
	C505.108246,923.347778 505.958771,924.785889 508.594208,924.755493 
	C514.758789,924.684448 520.955444,925.063599 527.081238,924.558167 
	C534.878113,923.914734 541.046509,917.276733 541.268921,910.139526 
	C541.501709,902.671143 536.567078,896.605164 529.076660,895.332581 
	C522.640015,894.239136 516.132935,894.349548 509.633636,894.472534 
	C506.352051,894.534607 504.811951,896.131165 504.922546,899.491272 
	C505.054077,903.487122 504.983521,907.489563 505.014008,912.482239 
z"/>
<path fill="#000000" opacity="1.000000" stroke="none" 
	d="
M472.986267,75.442657 
	C474.686432,75.145210 476.003754,74.940857 477.328888,74.841461 
	C487.588776,74.071861 487.563873,74.081741 488.997864,84.173935 
	C490.775696,96.685982 492.744415,109.172684 494.369446,121.704208 
	C496.411133,137.448761 490.407074,149.763443 477.696320,156.594116 
	C464.156311,163.870453 445.145081,162.820663 434.611023,154.004318 
	C426.614929,147.312057 423.379425,138.148224 421.932587,128.179077 
	C420.021423,115.010338 418.206696,101.827019 416.190155,88.674545 
	C415.629425,85.017288 416.937836,83.525948 420.495911,83.029694 
	C431.793060,81.454002 431.769989,81.378105 433.513550,92.256035 
	C435.513702,104.734856 437.735962,117.181824 439.504303,129.693146 
	C441.914490,146.745819 456.493683,150.714020 469.306488,144.377151 
	C475.621460,141.253906 477.916565,135.392670 477.965210,128.610001 
	C478.022797,120.576843 476.173615,112.758499 475.106201,104.853134 
	C473.993835,96.614563 472.774841,88.390022 471.724274,80.143829 
	C471.530548,78.623283 470.745911,76.790802 472.986267,75.442657 
z"/>
<path fill="#000000" opacity="1.000000" stroke="none" 
	d="
M380.751526,874.929321 
	C382.093811,870.223145 383.380920,865.921875 384.548706,861.588440 
	C385.237305,859.033081 386.612671,857.884094 389.279633,858.756897 
	C389.436768,858.808411 389.605438,858.824036 389.767883,858.860168 
	C401.797882,861.537109 401.657623,861.499268 398.459900,873.345337 
	C394.951477,886.342224 390.133240,898.993408 387.894653,912.321838 
	C386.039978,923.364502 391.414459,930.740662 403.438782,934.076294 
	C412.712952,936.648865 421.891571,932.025085 425.470123,922.479248 
	C427.506866,917.046204 429.059631,911.386597 430.310944,905.714417 
	C432.426544,896.124451 436.350800,887.023560 437.816010,877.269714 
	C437.935669,876.473145 438.152771,875.349670 438.708557,875.014099 
	C443.267090,872.262207 447.182159,876.030823 451.444061,876.513489 
	C454.015778,876.804749 454.284668,879.085205 453.696991,881.202393 
	C448.941620,898.334473 445.689270,915.939087 438.706177,932.377319 
	C433.683075,944.201660 419.125427,951.260559 405.931885,949.079407 
	C399.148621,947.957947 392.768219,945.858154 386.749634,942.367737 
	C373.579102,934.729797 368.875946,919.098755 372.395538,905.619690 
	C375.039917,895.492371 377.888519,885.418335 380.751526,874.929321 
z"/>
<path fill="#000000" opacity="1.000000" stroke="none" 
	d="
M232.221985,186.727905 
	C238.899414,168.171371 252.590500,158.551102 270.704468,154.168259 
	C273.382874,153.520218 274.874359,154.410446 275.435791,157.054138 
	C275.539032,157.540176 275.750885,158.002365 275.899109,158.479736 
	C278.412354,166.574524 278.431244,166.654785 270.110657,168.663940 
	C262.288177,170.552780 256.696045,175.797165 251.084106,181.014481 
	C250.145355,181.887222 249.589157,183.210480 248.977509,184.388565 
	C247.331696,187.558456 246.971085,190.805145 249.193222,193.825760 
	C251.481628,196.936417 254.890854,197.073929 258.260284,196.470749 
	C263.228424,195.581329 267.677094,193.193161 272.221405,191.124039 
	C276.769318,189.053268 281.298553,186.986877 286.183044,185.743408 
	C295.233856,183.439316 303.051636,185.105850 309.111450,192.567123 
	C315.585846,200.538910 315.226135,209.092712 310.930817,217.860138 
	C308.010803,223.820358 303.682098,228.631332 298.301849,232.437195 
	C290.247772,238.134460 281.956238,243.385666 271.872803,244.788391 
	C265.723083,245.643875 259.885162,238.408203 262.144287,232.626114 
	C262.924316,230.629684 264.867126,231.051620 266.459259,230.863342 
	C276.907806,229.627716 285.997009,225.581161 293.312042,217.882629 
	C294.225159,216.921631 295.094604,215.891556 295.821625,214.786469 
	C297.955627,211.542709 299.184753,207.907990 296.682800,204.553970 
	C294.274384,201.325348 290.480896,200.869217 286.673950,201.768936 
	C280.953308,203.120941 275.825348,205.989761 270.480469,208.301758 
	C264.177002,211.028366 257.669769,213.589096 250.746643,212.921494 
	C238.771606,211.766785 230.961212,200.602280 232.221985,186.727905 
z"/>
<path fill="#000000" opacity="1.000000" stroke="none" 
	d="
M692.643677,849.947876 
	C692.108093,853.910828 689.215149,852.946655 687.126648,852.992859 
	C679.294861,853.166321 671.918579,854.783081 665.354431,859.237427 
	C663.708984,860.354004 662.121155,861.605530 660.701233,862.993835 
	C658.067627,865.568726 657.438721,868.780396 658.594299,872.205688 
	C659.743774,875.612976 662.807190,876.430481 665.856323,876.463745 
	C673.546448,876.547607 681.091614,875.215942 688.593323,873.603821 
	C693.637085,872.519897 698.660217,871.613770 703.888000,872.877075 
	C716.230530,875.859680 722.831848,888.649536 718.151489,900.503601 
	C711.935669,916.246521 698.328979,921.527588 683.555237,925.091980 
	C679.023743,926.185181 674.330444,926.436768 669.643616,926.086426 
	C665.632568,925.786438 662.957214,924.393311 663.576782,919.602112 
	C663.890747,917.173767 663.631653,914.671326 663.631653,912.361755 
	C665.648438,910.934509 667.493225,911.809387 669.236633,911.927490 
	C678.217041,912.535583 686.827576,911.507141 694.878357,907.076233 
	C698.023499,905.345215 700.786621,903.298523 702.656799,900.246155 
	C704.542236,897.168640 704.710510,893.848633 702.763245,890.790833 
	C700.958862,887.957336 697.967346,887.273804 694.825623,887.772583 
	C686.605469,889.077637 678.417114,890.583252 670.196472,891.885132 
	C657.277039,893.931213 647.784180,888.772583 643.742371,877.675293 
	C640.048157,867.532654 644.529358,859.591309 651.286560,852.940247 
	C661.245850,843.137329 673.870667,839.265686 687.639038,838.708191 
	C690.740845,838.582642 692.323792,839.849304 692.327637,843.046875 
	C692.330200,845.209045 692.514587,847.370972 692.643677,849.947876 
z"/>
<path fill="#000000" opacity="1.000000" stroke="none" 
	d="
M362.917908,116.015533 
	C351.153168,121.200172 351.186127,121.185318 356.286133,132.502274 
	C363.392487,148.271378 370.376892,164.095901 377.578369,179.821228 
	C378.913727,182.737198 378.161682,184.047668 375.435272,185.099365 
	C361.834290,190.345856 364.525818,192.266464 358.117004,178.298889 
	C351.187317,163.196030 344.428955,148.013657 337.720215,132.811096 
	C336.378021,129.769592 335.062592,128.745529 331.733826,130.492889 
	C326.440826,133.271347 320.795654,135.371017 315.429565,138.021240 
	C312.260132,139.586548 310.623718,138.716003 309.212280,135.680405 
	C305.286072,127.236336 305.200348,127.254410 313.758728,123.278488 
	C331.099792,115.222473 348.468903,107.226387 365.779572,99.105675 
	C368.585938,97.789162 370.015869,97.899368 371.425873,101.132637 
	C375.484222,110.438728 375.659027,110.361618 366.453613,114.431763 
	C365.388367,114.902763 364.328857,115.386887 362.917908,116.015533 
z"/>
<path fill="#000000" opacity="1.000000" stroke="none" 
	d="
M345.731598,858.687256 
	C336.352997,876.143677 327.138489,893.267944 317.958649,910.410645 
	C316.590515,912.965637 315.005554,913.452393 312.304016,912.063721 
	C301.839478,906.685120 301.572754,906.651184 306.578064,896.348877 
	C315.518433,877.947144 325.658356,860.179016 335.885223,842.469910 
	C340.565033,834.366272 340.677612,834.431274 348.819641,838.684143 
	C355.115051,841.972473 355.097809,841.962646 351.473175,848.326172 
	C349.580139,851.649719 347.759979,855.014709 345.731598,858.687256 
z"/>
<path fill="#000000" opacity="1.000000" stroke="none" 
	d="
M602.501038,933.411865 
	C597.689636,914.497070 593.022095,895.971130 588.219299,877.480286 
	C587.366028,874.195068 588.181763,872.625305 591.550232,871.725159 
	C603.479065,868.537415 603.308655,868.483032 606.306213,880.335144 
	C611.562195,901.117126 616.990601,921.855713 622.407593,942.596558 
	C623.742188,947.706421 623.221375,948.902649 617.831909,949.261780 
	C614.238342,949.501343 610.341431,952.707642 607.351685,950.330444 
	C604.606018,948.147278 605.517578,943.495239 604.180237,940.091553 
	C603.397461,938.099060 603.109375,935.912170 602.501038,933.411865 
z"/>
<path fill="#000000" opacity="1.000000" stroke="none" 
	d="
M671.468567,109.636322 
	C672.459534,106.775909 673.750549,106.077911 676.514282,107.152748 
	C688.471680,111.802986 688.455322,111.686508 683.513367,123.315758 
	C675.250854,142.758835 667.065308,162.234604 658.843384,181.694946 
	C656.446167,187.368805 656.021057,187.533142 650.354553,185.081116 
	C640.758667,180.928711 640.942383,181.008392 645.277832,171.008957 
	C654.076538,150.715485 662.655701,130.326782 671.468567,109.636322 
z"/>
<path fill="#000000" opacity="1.000000" stroke="none" 
	d="
M776.312927,836.710571 
	C770.184204,839.094971 764.846375,838.623596 760.254150,834.147583 
	C756.351074,830.343384 755.929016,825.638916 757.293884,820.724609 
	C758.789917,815.337830 764.199768,811.235291 769.441040,811.156433 
	C775.175659,811.070190 780.706421,815.423767 782.665161,821.566040 
	C784.496033,827.307617 782.481689,832.323608 776.312927,836.710571 
z"/>
<path fill="#000000" opacity="1.000000" stroke="none" 
	d="
M252.736603,837.681885 
	C246.312088,835.486084 243.078537,831.110840 243.053986,824.868591 
	C243.031235,819.077148 246.127075,814.741150 251.335495,812.282776 
	C256.170868,810.000549 260.753082,811.122559 264.775848,814.442993 
	C268.875031,817.826477 270.416595,824.978027 268.262451,829.953369 
	C265.829834,835.571960 260.289368,838.442322 252.736603,837.681885 
z"/>
</svg>